<svg xmlns="http://www.w3.org/2000/svg" xmlns:xlink="http://www.w3.org/1999/xlink" viewBox="0 0 429 433.5"><defs><style>.cls-1{fill:url(#linear-gradient);}.cls-2{fill:#fff;}.cls-3,.cls-4,.cls-5,.cls-6,.cls-7,.cls-8,.cls-9{fill:none;stroke-linecap:round;stroke-miterlimit:10;}.cls-3,.cls-4,.cls-5,.cls-6,.cls-7{stroke-width:3px;}.cls-3{stroke:url(#linear-gradient-2);}.cls-4{stroke:url(#linear-gradient-3);}.cls-5{stroke:url(#linear-gradient-4);}.cls-6{stroke:url(#linear-gradient-5);}.cls-7{stroke:url(#linear-gradient-6);}.cls-8,.cls-9{stroke-width:8px;}.cls-8{stroke:url(#linear-gradient-7);}.cls-9{stroke:url(#linear-gradient-8);}.cls-10{fill:url(#linear-gradient-9);}.cls-11{fill:url(#linear-gradient-10);}.cls-12{opacity:0.32;fill:url(#linear-gradient-11);}.cls-13{fill:#040404;}.cls-14{fill:#64437e;}.cls-15{fill:#3d549d;}.cls-16{fill:#8d2d5b;}.cls-17{fill:#445096;}.cls-18{fill:#942854;}.cls-19{fill:#6c3d76;}.cls-20{fill:#872f5e;}.cls-21{fill:#53498a;}.cls-22{fill:#4e4b8e;}.cls-23{fill:#823566;}.cls-24{fill:#823263;}.cls-25{fill:#484d92;}.cls-26{fill:#5a4785;}.cls-27{fill:#7b386b;}.cls-28{fill:#72386f;}.cls-29{fill:#fdfefe;}.cls-30{fill:#fdfdfe;}.cls-31{fill:#fcfcfd;}.cls-32{fill:#f9f8fa;}.cls-33{fill:#fcfbfc;}.cls-34{fill:#fefefe;}.cls-35{fill:#fefdfd;}</style><linearGradient id="linear-gradient" x1="33.87" y1="696.61" x2="216.57" y2="177.1" gradientUnits="userSpaceOnUse"><stop offset="0" stop-color="#999"/><stop offset="0.05" stop-color="#a2a2a2"/><stop offset="0.26" stop-color="#c5c5c5"/><stop offset="0.46" stop-color="#dedede"/><stop offset="0.65" stop-color="#ededed"/><stop offset="0.8" stop-color="#f2f2f2"/></linearGradient><linearGradient id="linear-gradient-2" x1="79.5" y1="99" x2="350.5" y2="99" gradientUnits="userSpaceOnUse"><stop offset="0" stop-color="#0000b9"/><stop offset="0.05" stop-color="#1000aa"/><stop offset="0.23" stop-color="#460077"/><stop offset="0.41" stop-color="#73004c"/><stop offset="0.58" stop-color="#96002b"/><stop offset="0.74" stop-color="#af0013"/><stop offset="0.88" stop-color="#be0005"/><stop offset="1" stop-color="#c30000"/></linearGradient><linearGradient id="linear-gradient-3" x1="80" y1="138.5" x2="351" y2="138.5" xlink:href="#linear-gradient-2"/><linearGradient id="linear-gradient-4" x1="80" y1="178.5" x2="351" y2="178.5" xlink:href="#linear-gradient-2"/><linearGradient id="linear-gradient-5" x1="80" y1="218.5" x2="351" y2="218.5" xlink:href="#linear-gradient-2"/><linearGradient id="linear-gradient-6" x1="80" y1="258.5" x2="351" y2="258.5" xlink:href="#linear-gradient-2"/><linearGradient id="linear-gradient-7" x1="77.5" y1="298.5" x2="353.5" y2="298.5" xlink:href="#linear-gradient-2"/><linearGradient id="linear-gradient-8" x1="77.5" y1="338.5" x2="353.5" y2="338.5" xlink:href="#linear-gradient-2"/><linearGradient id="linear-gradient-9" x1="106.41" y1="530.23" x2="467.32" y2="169.32" gradientTransform="matrix(-1, 0, 0, 1, 429.5, 0)" gradientUnits="userSpaceOnUse"><stop offset="0" stop-color="#999"/><stop offset="0.06" stop-color="#a2a2a2"/><stop offset="0.33" stop-color="#c5c5c5"/><stop offset="0.58" stop-color="#dedede"/><stop offset="0.81" stop-color="#ededed"/><stop offset="1" stop-color="#f2f2f2"/></linearGradient><linearGradient id="linear-gradient-10" x1="106.03" y1="530.35" x2="467.19" y2="169.19" gradientTransform="matrix(1, 0, 0, 1, 0, 0)" xlink:href="#linear-gradient-9"/><linearGradient id="linear-gradient-11" x1="0.5" y1="347.13" x2="214.5" y2="347.13" gradientUnits="userSpaceOnUse"><stop offset="0" stop-color="#999"/><stop offset="0.07" stop-color="#969696"/><stop offset="0.58" stop-color="#878787"/><stop offset="1" stop-color="#828282"/></linearGradient></defs><title>Asset 1</title><g id="Layer_2" data-name="Layer 2"><g id="envelope"><rect class="cls-1" width="429" height="366" rx="13.79"/><rect class="cls-2" x="16.75" y="17.75" width="397.5" height="375.5" rx="14.67"/><path d="M399.58,18A14.44,14.44,0,0,1,414,32.42V378.58A14.44,14.44,0,0,1,399.58,393H31.42A14.44,14.44,0,0,1,17,378.58V32.42A14.44,14.44,0,0,1,31.42,18H399.58m0-.5H31.42A15,15,0,0,0,16.5,32.42V378.58A15,15,0,0,0,31.42,393.5H399.58a15,15,0,0,0,14.92-14.92V32.42A15,15,0,0,0,399.58,17.5Z"/><line class="cls-3" x1="81" y1="99" x2="349" y2="99"/><line class="cls-4" x1="81.5" y1="138.5" x2="349.5" y2="138.5"/><line class="cls-5" x1="81.5" y1="178.5" x2="349.5" y2="178.5"/><line class="cls-6" x1="81.5" y1="218.5" x2="349.5" y2="218.5"/><line class="cls-7" x1="81.5" y1="258.5" x2="349.5" y2="258.5"/><line class="cls-8" x1="81.5" y1="298.5" x2="349.5" y2="298.5"/><line class="cls-9" x1="81.5" y1="338.5" x2="349.5" y2="338.5"/><path class="cls-10" d="M.5,131c0,5,.41,287.86.41,287.86a14.82,14.82,0,0,0,14.9,14.64H413.6a14.81,14.81,0,0,0,14.9-14.64Z"/><path class="cls-11" d="M429,131c0,5-.41,287.86-.41,287.86a14.83,14.83,0,0,1-14.92,14.64H15.42A14.82,14.82,0,0,1,.5,418.86Z"/><polygon class="cls-12" points="214.5 274.76 0.5 410.5 0.5 419.5 214.5 274.76"/><path class="cls-2" d="M136.74,59.58v29H79.3V31.41H91v0c-.23,0-.47.06-.7.11A4.41,4.41,0,0,0,87.85,33a5.59,5.59,0,0,0-.9,1.48,9.83,9.83,0,0,0-.68,2.44c-.09.58-.16,1.16-.25,1.74s-.17,1.28-.26,1.92l-.27,1.91c-.09.64-.17,1.28-.26,1.92s-.21,1.47-.31,2.2l-.3,2.15c-.12.9-.25,1.81-.37,2.71s-.26,1.87-.4,2.8a6.63,6.63,0,0,1-.36,1.46,3.5,3.5,0,0,1-.36.79l0,0a0,0,0,0,0,0,0,4,4,0,0,1-1,1.17,4,4,0,0,1-1.95.79H80s-.07,0-.09,0l-.42,0c0,.26-.08.51-.1.77h.21a4.44,4.44,0,0,1,1,.13,2.43,2.43,0,0,1,1.87,1.84,5,5,0,0,1,.15,1.14,12.85,12.85,0,0,1-.16,1.86c-.06.39-.11.79-.17,1.18l-.15,1.13c-.06.39-.11.78-.17,1.18L81.74,69c-.06.39-.11.78-.16,1.16s-.11.77-.16,1.15-.11.76-.16,1.14-.11.79-.17,1.18-.1.76-.16,1.14l-.15,1.15c-.06.38-.11.77-.17,1.16l-.15,1.14c-.06.39-.11.78-.17,1.16s-.1.78-.16,1.17-.1.78-.12,1.18A9.85,9.85,0,0,0,80,83a5,5,0,0,0,.3,1.33,3.11,3.11,0,0,0,2,2,4.61,4.61,0,0,0,1.52.24H84c0-.22,0-.42,0-.64h-.15a4.3,4.3,0,0,1-1-.14,2.44,2.44,0,0,1-1.67-1.31,4.34,4.34,0,0,1-.2-.5,5.46,5.46,0,0,1-.22-1.4,13.1,13.1,0,0,1,.16-2.25c.06-.38.11-.76.16-1.14s.11-.76.16-1.14.13-.94.2-1.41.13-.93.19-1.39.13-.94.2-1.41.13-.93.19-1.39l.27-1.9.3-2.17.3-2.16.3-2.18a8.55,8.55,0,0,0,.07-2A4.49,4.49,0,0,0,83,60.84a2.64,2.64,0,0,0-1.31-1.46,3.71,3.71,0,0,0-1-.34l-.22,0a.4.4,0,0,1,.16-.06,4.83,4.83,0,0,0,.91-.22,3.9,3.9,0,0,0,2-1.43,4.84,4.84,0,0,0,.56-1,8.32,8.32,0,0,0,.53-1.91c.09-.57.16-1.15.25-1.72s.17-1.27.26-1.9.16-1.11.23-1.66.15-1.1.23-1.65l.27-1.9c.08-.55.15-1.1.23-1.66s.16-1.1.23-1.65.15-1.1.23-1.65l.27-1.9c.08-.59.16-1.18.25-1.76a10.79,10.79,0,0,1,.44-1.76,5.9,5.9,0,0,1,.71-1.42A3.63,3.63,0,0,1,90,32.32a4.6,4.6,0,0,1,1.27-.24,1.88,1.88,0,0,0,.33,0l.06-.65h45.06v28a4.11,4.11,0,0,1-1.35-.18,2.35,2.35,0,0,1-1.55-1.38,3.83,3.83,0,0,1-.23-.8,6.19,6.19,0,0,1,0-1.72c0-.22.05-.45.08-.67s.11-.75.16-1.12.11-.78.16-1.17.11-.77.16-1.16.11-.76.16-1.14.11-.78.16-1.16.11-.75.16-1.13.11-.77.16-1.16.11-.77.16-1.16.11-.78.16-1.16.11-.75.16-1.13.1-.76.16-1.14.13-.94.2-1.41.13-.94.19-1.41.15-1.07.21-1.6a8.45,8.45,0,0,0,0-2,5,5,0,0,0-.29-1.2,3.13,3.13,0,0,0-2-1.94,5.3,5.3,0,0,0-1.37-.22h-.21c0,.21,0,.41-.05.61l0,0,.24,0a3.24,3.24,0,0,1,.82.11,2.5,2.5,0,0,1,1.9,1.69,4.45,4.45,0,0,1,.23,1.13,9.74,9.74,0,0,1-.08,2.29l-.12.88c-.06.38-.11.76-.16,1.14s-.11.76-.16,1.14-.11.8-.17,1.2l-.15,1.13c-.06.37-.11.75-.16,1.12s-.11.79-.17,1.18L134,47c-.07.46-.13.92-.2,1.39s-.12.92-.19,1.39-.16,1.1-.23,1.65-.15,1.1-.23,1.66-.17,1.19-.25,1.79a8.62,8.62,0,0,0-.06,1.76,4.47,4.47,0,0,0,.21,1.09,2.73,2.73,0,0,0,1.71,1.78,4.17,4.17,0,0,0,.75.2l.07,0-.18.06h0a.25.25,0,0,0-.17,0l-.34.08a4.11,4.11,0,0,0-1.76,1,4.57,4.57,0,0,0-.93,1.29,7.54,7.54,0,0,0-.63,2.09c-.1.64-.19,1.28-.28,1.93s-.15,1.1-.23,1.65-.16,1.11-.23,1.66l-.27,1.9c-.07.55-.15,1.1-.23,1.65s-.17,1.27-.26,1.9l-.24,1.66c-.08.55-.15,1.1-.23,1.65s-.18,1.27-.27,1.9-.16,1.17-.25,1.76a9.81,9.81,0,0,1-.46,1.75,5.79,5.79,0,0,1-.81,1.51,3.7,3.7,0,0,1-1.71,1.23,5,5,0,0,1-1.44.25h-.17a4.57,4.57,0,0,0,0,.64h.13a6.24,6.24,0,0,0,1.06-.1,4.44,4.44,0,0,0,3-2,6.37,6.37,0,0,0,.73-1.48,12,12,0,0,0,.57-2.58c.05-.39.11-.77.16-1.16s.11-.76.16-1.14.11-.78.16-1.17.11-.76.16-1.14.11-.77.16-1.16.11-.75.16-1.13.11-.77.16-1.16.11-.76.16-1.14.11-.77.16-1.15.11-.78.16-1.18.11-.77.17-1.16l.15-1.14c.06-.39.11-.77.17-1.16l.15-1.15c.06-.42.12-.84.22-1.26a5.6,5.6,0,0,1,.64-1.66,3.7,3.7,0,0,1,1.75-1.61,4,4,0,0,1,1.37-.35l.51,0a.37.37,0,0,0,0-.09c0-.16,0-.31.05-.46S136.71,59.58,136.74,59.58ZM101.1,77.86h0l0,0h0l-.06,0-.09-.06-.06,0-.08-.07-.06,0a.71.71,0,0,1-.14-.1l-.34-.25A4,4,0,0,1,99.9,77l-.22-.17-.21-.14c-.1-.09-.21-.16-.3-.24s-.08,0-.11-.08a.43.43,0,0,0-.13-.09,2.25,2.25,0,0,1-.3-.24l-3.12-2.29-.19-.16c-.13,0-5.59,2.57-5.84,2.71l-.06.15c-.37.78-.73,1.57-1.09,2.35l-.26.57c0,.05-.06.1-.08.15-.24.51-.47,1-.7,1.53l-.62,1.34a.23.23,0,0,0,0,.18l.18.11,3.09,2,.39.25.46.32,3.13,2a.18.18,0,0,0,.11,0l.37,0,.7.08,1.1.13.72.09.81.09.71.08,1.11.14.7.08,1.11.13.71.08,1.11.13.74.09a.7.7,0,0,0,.35,0l3.9-1.38,2.49-.87,1-.37.64-.23c.26-.09.52-.19.79-.27l.35-.13h.06l.06,0h0l.06,0L114,85h0l0-.05a.39.39,0,0,0,.08-.1l1-1.35c.73-.94,1.45-1.89,2.17-2.83l.3-.41.19-.23,2.49-3.26.65-.84a.4.4,0,0,0,.08-.16c0-.36.07-.73.11-1.09,0-.16,0-.32,0-.48s0-.43.06-.65l0-.1c0-.16,0-.32,0-.48l.09-.85c0-.27,0-.54.08-.81s.09-.76.13-1.14.09-.87.14-1.31c0-.17,0-.34,0-.51s0-.47.08-.7c0-.39.09-.78.13-1.16a5.7,5.7,0,0,0,0-.71c0-.72,0-1.43,0-2.15V62.38c0-1,0-2,0-3,0,0,0-.1,0-.14s0-.07,0-.11c0-.32,0-.64,0-1v-.94c0-1.47,0-2.93,0-4.4,0-.56,0-1.13,0-1.69,0-.14,0-.29,0-.44v-.16l0-1.65c0-1.06,0-2.12,0-3.17,0-.12,0-.24,0-.36s0-.21,0-.31c0-.76,0-1.52,0-2.28,0-.19,0-.38,0-.57a.36.36,0,0,0,0-.1l0-2.36c0-.3,0-.59,0-.89V37.81s0,0,0,0l0-1.52c0-.54,0-1.08,0-1.62s0-.86,0-1.28c0,0,0-.08,0-.12l-.15,0-3-.64-3.13-.67a.74.74,0,0,0-.33,0l-1.22.26-2.65.56-2.09.45-.87.19v.11c0,.24,0,.48,0,.72,0,.58,0,1.15,0,1.73,0,.4,0,.8,0,1.21,0,.23,0,.46,0,.69s0,.39,0,.58c0,.47,0,.94,0,1.41,0,.17,0,.34,0,.51s0,.37,0,.55c0,.45,0,.9,0,1.35s0,.76,0,1.13,0,1,.05,1.53l0,.48v.12c0,.44,0,.87,0,1.3s0,.95,0,1.42,0,.68,0,1l.09,1,.09,1,.09,1c0,.32.06.65.08,1s.07.72.1,1.08,0,.47.08.71a.48.48,0,0,0,0,.12,1.55,1.55,0,0,1,0,.48.77.77,0,0,1,0,.15c-.05.37-.1.73-.16,1.09s-.13.89-.2,1.33-.15,1.07-.22,1.6-.17,1.17-.26,1.76a.28.28,0,0,0,0,.18l.26.51.15.28.09.19c.08.17.17.33.25.5l.62,1.21a.25.25,0,0,1,0,.25c-.05.12-.09.24-.13.37L109,67.13c-.06.16-.11.32-.16.48l0,.11-1,3,0,.13-.19.53v0c-.1.25-.19.49-.28.74-.16.48-.33,1-.5,1.43l-.39,1.14c0,.07,0,.15-.07.23l-.11.09-3.44,2.64-.57.45-.31.23-.18-.12-.25-.18-.1-.07-.05,0-.09-.07Z"/><path class="cls-13" d="M80,58.55h.19a4,4,0,0,0,1.95-.79,4,4,0,0,0,1-1.17,0,0,0,0,1,0,0l0,0a3.5,3.5,0,0,0,.36-.79,6.63,6.63,0,0,0,.36-1.46c.14-.93.26-1.87.4-2.8s.25-1.81.37-2.71l.3-2.15c.1-.73.21-1.46.31-2.2s.17-1.28.26-1.92l.27-1.91c.09-.64.18-1.28.26-1.92s.16-1.16.25-1.74A9.83,9.83,0,0,1,87,34.48a5.59,5.59,0,0,1,.9-1.48,4.41,4.41,0,0,1,2.49-1.45c.23-.05.47-.07.7-.11h.53s0,0,0,0h.08l-.06.65a1.88,1.88,0,0,1-.33,0,4.6,4.6,0,0,0-1.27.24,3.63,3.63,0,0,0-1.86,1.44,5.9,5.9,0,0,0-.71,1.42A10.79,10.79,0,0,0,87,36.94c-.09.58-.17,1.17-.25,1.76l-.27,1.9c-.08.55-.15,1.1-.23,1.65s-.16,1.1-.23,1.65-.15,1.11-.23,1.66l-.27,1.9c-.08.55-.15,1.1-.23,1.65s-.16,1.11-.23,1.66-.18,1.26-.26,1.9-.16,1.15-.25,1.72A8.32,8.32,0,0,1,84,56.3a4.84,4.84,0,0,1-.56,1,3.9,3.9,0,0,1-2,1.43,4.83,4.83,0,0,1-.91.22.4.4,0,0,0-.16.06l.22,0a3.71,3.71,0,0,1,1,.34A2.64,2.64,0,0,1,83,60.84,4.49,4.49,0,0,1,83.25,62a8.55,8.55,0,0,1-.07,2l-.3,2.18-.3,2.16-.3,2.17L82,72.41c-.06.46-.13.93-.19,1.39s-.13.94-.2,1.41-.13.92-.19,1.39-.13.94-.2,1.41-.1.76-.16,1.14-.1.76-.16,1.14a13.1,13.1,0,0,0-.16,2.25,5.46,5.46,0,0,0,.22,1.4,4.34,4.34,0,0,0,.2.5,2.44,2.44,0,0,0,1.67,1.31,4.3,4.3,0,0,0,1,.14H84c0,.22,0,.42,0,.64h-.1a4.61,4.61,0,0,1-1.52-.24,3.11,3.11,0,0,1-2-2A5,5,0,0,1,80,83a9.85,9.85,0,0,1,0-1.33c0-.4.07-.79.12-1.18s.11-.78.16-1.17.11-.77.17-1.16L80.61,77c.06-.39.11-.78.17-1.16l.15-1.15c.06-.38.11-.76.16-1.14s.11-.79.17-1.18.1-.76.16-1.14.1-.77.16-1.15.1-.77.16-1.16l.15-1.12c.06-.4.11-.79.17-1.18l.15-1.13c.06-.39.11-.79.17-1.18a12.85,12.85,0,0,0,.16-1.86,5,5,0,0,0-.15-1.14,2.43,2.43,0,0,0-1.87-1.84,4.44,4.44,0,0,0-1-.13h-.21c0-.26.06-.51.1-.77l.42,0A.08.08,0,0,0,80,58.55Z"/><path class="cls-13" d="M136.74,59.58s0,0,0,.05,0,.3-.05.46a.37.37,0,0,1,0,.09l-.51,0a4,4,0,0,0-1.37.35A3.7,3.7,0,0,0,133,62.17a5.6,5.6,0,0,0-.64,1.66c-.1.42-.16.84-.22,1.26L132,66.24c-.06.39-.11.77-.17,1.16l-.15,1.14c-.06.39-.11.78-.17,1.16s-.11.79-.16,1.18-.11.77-.16,1.15-.11.76-.16,1.14-.11.78-.16,1.16-.1.75-.16,1.13-.1.77-.16,1.16-.1.76-.16,1.14-.1.78-.16,1.17-.1.76-.16,1.14-.11.77-.16,1.16a12,12,0,0,1-.57,2.58,6.37,6.37,0,0,1-.73,1.48,4.44,4.44,0,0,1-3,2,6.24,6.24,0,0,1-1.06.1h-.13a4.57,4.57,0,0,1,0-.64h.17a5,5,0,0,0,1.44-.25,3.7,3.7,0,0,0,1.71-1.23,5.79,5.79,0,0,0,.81-1.51,9.81,9.81,0,0,0,.46-1.75c.09-.59.17-1.17.25-1.76s.19-1.27.27-1.9.15-1.1.23-1.65l.24-1.66c.09-.63.17-1.27.26-1.9s.16-1.1.23-1.65l.27-1.9c.07-.55.16-1.11.23-1.66s.15-1.1.23-1.65.18-1.29.28-1.93a7.54,7.54,0,0,1,.63-2.09,4.57,4.57,0,0,1,.93-1.29,4.11,4.11,0,0,1,1.76-1l.34-.08a.2.2,0,0,0,.17,0h.13l.14,0s.08,0,.12,0a.44.44,0,0,0-.27,0,4.17,4.17,0,0,1-.75-.2A2.73,2.73,0,0,1,133,57.77a4.47,4.47,0,0,1-.21-1.09,8.62,8.62,0,0,1,.06-1.76c.08-.6.17-1.2.25-1.79s.15-1.11.23-1.66.15-1.1.23-1.65.13-.93.19-1.39.13-.93.2-1.39l.15-1.13c.06-.39.12-.78.17-1.18s.1-.75.16-1.12l.15-1.13c.06-.4.11-.8.17-1.2s.11-.76.16-1.14.1-.76.16-1.14l.12-.88a9.74,9.74,0,0,0,.08-2.29,4.45,4.45,0,0,0-.23-1.13,2.5,2.5,0,0,0-1.9-1.69,3.24,3.24,0,0,0-.82-.11l-.24,0,0,0c0-.2,0-.4.05-.61h.21a5.3,5.3,0,0,1,1.37.22,3.13,3.13,0,0,1,2,1.94,5,5,0,0,1,.29,1.2,8.45,8.45,0,0,1,0,2c-.06.53-.14,1.07-.21,1.6s-.13.94-.19,1.41-.14.94-.2,1.41-.11.76-.16,1.14-.1.75-.16,1.13-.1.77-.16,1.16-.1.77-.16,1.16-.11.77-.16,1.16-.1.75-.16,1.13-.1.77-.16,1.16-.1.76-.16,1.14-.1.78-.16,1.16-.11.78-.16,1.17-.1.75-.16,1.12-.05.45-.08.67a6.19,6.19,0,0,0,0,1.72,3.83,3.83,0,0,0,.23.8,2.35,2.35,0,0,0,1.55,1.38,4.11,4.11,0,0,0,1.35.18Z"/><path class="cls-14" d="M91.6,31.41s0,0,0,0H91v0Z"/><path class="cls-15" d="M108.51,37.81c0-.23,0-.46,0-.69,0-.41,0-.81,0-1.21,0-.58,0-1.15,0-1.73,0-.24,0-.48,0-.72v-.11l.87-.19,2.09-.45,2.65-.56,1.22-.26a.74.74,0,0,1,.33,0l3.13.67,3,.64.15,0s0,.08,0,.12c0,.42,0,.85,0,1.28s0,1.08,0,1.62l0,1.52s0,0,0,0h-.17c0-.31,0-.62,0-.93,0,.06,0,.14-.07.2s0,.12,0,.18,0,.14,0,.2,0,.23-.07.35a.27.27,0,0,1-.18,0v-.09l.15-.87c.06-.29.11-.59.17-.88a.2.2,0,0,0,0-.07l-.07,0-1.33,1-.18.14-.19.14-.19.13-.19.13c-.06,0-.11.09-.18.12s-.06.08-.13.1-.08.08-.12.12l-.08.08H119l0-.12s0-.06,0-.08-.12-.24-.19-.36,0,0-.06-.08l-.47.48-.18.19a.19.19,0,0,1-.08-.17h0l0,0h0l0,0h0l0,0,.2-.22v0h0l0,0h0l0,0h0l0,0h0l0,0,.16-.2,0-.08-1.64-2.72-1-1.69s0-.08-.09-.08v.09c0,.18,0,.35,0,.53,0,.5.07,1,.1,1.51s.08,1,.11,1.52.07,1,.11,1.52v.2l-.17,0,0-.15c0-.47-.07-.93-.1-1.4s-.08-.95-.11-1.42-.07-.93-.11-1.4-.05-.81-.08-1.22v0h0l-3.4,3.95.09.09.66.57.53.47,0,0h0l0,0h0l0,0,.07.07a.05.05,0,0,0,.06,0h0l0,0h0l0,0,.11.1a.36.36,0,0,1,0,.23l-.43-.36L112,36.36,112,36.3c-.16.18-.31.36-.47.53a6.57,6.57,0,0,1-.61.68l-.06.07a1.29,1.29,0,0,1-.25.27.46.46,0,0,1-.07-.07l0-.05,0,0s0,0,0,0h0l0,0h0l0,0,.13-.15,0,0s0,0,0,0l0,0h0l0,0h0l0,0,0-.06.64-.74.29-.34-2.89-2.45s0,0-.1-.08v.16c0,.34,0,.68,0,1l0,1.45c0,.51,0,1,0,1.53Zm11.17-.6,0,0,.39-.3,1.53-1.13s.09,0,.11-.12l-1.1-.65c-.15.17-.3.33-.44.5l-1.26,1.41a1.13,1.13,0,0,0-.1.13c.11.18.21.37.33.54l.19-.12,0,0h0l0,0,.07,0,0,0h0l0,0,.07,0,0,0Zm-7.78-1.16,3.39-3.89v0h-.05L109,33.44h0v0a.08.08,0,0,0,0,0Zm8.54-1.17-.13-.09-.72-.42L117.19,33l-1.13-.66s-.07-.06-.13,0a.59.59,0,0,0,0,.08l1.76,2.88.87,1.43a.56.56,0,0,0,.12.16Zm-4.15-2.7v0l.06,0,4.24,2.46h0c.15-.13,1.09-1.27,1.16-1.39Zm4.48,2.62,0,0,1,.61h.05c0-.61,0-1.22,0-1.83C121.79,33.71,121,34.52,120.77,34.8Z"/><path class="cls-16" d="M90.29,84.94l-.39-.25-3.09-2-.18-.11a.23.23,0,0,1,0-.18L87.29,81c.23-.51.46-1,.7-1.53,0,0,.06-.1.08-.15l.13,0a.73.73,0,0,1-.15.35,1.11,1.11,0,0,0-.07.16,1.55,1.55,0,0,1-.08.23l-1,2.15a.69.69,0,0,1,0,.1l.06,0,3.26,0h1.65a0,0,0,0,0,0,0h0l-.06-.15c-.1-.26-.22-.52-.32-.78-.24-.61-.49-1.21-.73-1.81a1.22,1.22,0,0,1-.09-.27l.11-.11a.09.09,0,0,1,.06.06,2.26,2.26,0,0,0,.13.33,2.34,2.34,0,0,1,.09.24c.05.15.11.29.17.43s.13.33.2.5c.21.49.4,1,.59,1.47l0,.11h3.3l-.07-.09-.91-.93L93,80l-.53-.57.1-.18a.18.18,0,0,1,.07,0l1.85,1.82c.3.31.61.61.92.92l.12.1V82l0-.62c0-.38,0-.76,0-1.14s0-.55,0-.83h.17s0,.06,0,.09l0,1c0,.45,0,.9,0,1.35,0,.17,0,.34,0,.5a.08.08,0,0,0,.07.1c.33-.23.67-.47,1-.71v-.09c-.07-.33-.13-.66-.19-1s-.15-.8-.22-1.2l.16,0,0,.09c.07.39.15.79.22,1.18s.12.64.19,1l.13-.07.43-.28,0,.18-.53.37.27,1.51,0,0s0,0,0,0l1-1.11c.14-.17.29-.33.44-.49s.27-.29.41-.44a.11.11,0,0,0,.08.14l0,.08-.16.14c-.17.18-.32.38-.48.56l-1.21,1.34-.09.12a.37.37,0,0,0,.19.11l.07-.08,1.06-1.31.63-.81c.07-.08.15-.16.22-.25l.14.09-.38.48-.42.53c0,.07-.11.12-.15.19s-.15.22-.24.33c-.21.28-.44.55-.65.83a1.7,1.7,0,0,0-.1.14l.11.08.65.45.51.36,0,.17-.11-.06-1-.72L97.57,84l-.1.1.31.2.65.42,0,0h0v.19l-.6-.38-.53-.34-.3.28-.47.41a.13.13,0,0,1-.1-.12l.22-.21.47-.42-.33,0-.49.54-.29.3,0-.19.06-.07.44-.49.07-.1-1.33-.22a1.47,1.47,0,0,1-.07.17c-.08.21-.15.41-.23.61a2.56,2.56,0,0,1-.11.24l-.17-.07.34-1-1.26-.19-1.26-.2a.45.45,0,0,1,0,.08c.07.17.14.33.2.5l.3.76-.13,0a.41.41,0,0,1,0-.09l-.3-.76-.24-.59-5-.76h-.09a0,0,0,0,0,0,0v0l.11.08,2.57,1.7a.91.91,0,0,1,.16.11l0,0h0c0,.08,0,.08.11.07h0c0,.08,0,.08.11.07h0Zm2.13-1.69,2.68.44,0,0c.1-.33.22-.67.31-1l0,0H92.16v0ZM92,82.63H90.71l-1.24,0c-.41,0-.82,0-1.22,0,1.27.22,2.54.42,3.82.63h.1Zm3.93-.11a3.27,3.27,0,0,0,.33.32c.27.21.54.42.82.62l0,0A3,3,0,0,0,97,83l-.09-.53a3.39,3.39,0,0,0-.1-.52Zm-.23.24a4.43,4.43,0,0,0-.32.94l.11,0,.64.11.6.08a.16.16,0,0,0,.19-.1Z"/><path class="cls-17" d="M118,37.71a.19.19,0,0,0,.08.17l-.78.87a1.6,1.6,0,0,0-.33.4l.13-.08L118.6,38l.35-.24,0,.12c0,.06,0,.08-.09.11l-2.37,1.72-.13.11.09.05,4.22,1.86a.18.18,0,0,0,0-.09l.12-.61a.3.3,0,0,0,0-.26l-1.54-2.58a3,3,0,0,1-.16-.31l.08-.08.07.08.44.71,1.15,1.85a1.26,1.26,0,0,0,.1.15c0-.13,0-.23.06-.33l.39-2.18a2.3,2.3,0,0,1,.06-.28.27.27,0,0,0,.18,0c0,.15,0,.3-.08.45l-.48,2.45a.2.2,0,0,0,0,.17.3.3,0,0,1,0,.08,7.15,7.15,0,0,1,.5.84l0,.06,0,.08.06.07v-.37c0-.38,0-.75,0-1.12,0-.87,0-1.74,0-2.61,0,0,0-.07,0-.1H122v1.06c0,.3,0,.59,0,.89l0,2.36a.36.36,0,0,1,0,.1,1.06,1.06,0,0,1-.35,0v.1l-.49-.19-.21-.08,0,.2-.17,0,0-.29-4.11-1.8s0,0-.06,0a.56.56,0,0,0,0,.08l1,1.39.37.54,0,0,0,0c-.07,0-.12,0-.14.09-.08-.07-.12-.18-.21-.26l0,.12a.34.34,0,0,1-.06.06l-.09.06c-.09-.14-.18-.28-.26-.42l-1-1.61s0-.07-.08,0,0,.28,0,.42l-.06.72c0,.24,0,.47,0,.71s0,.35,0,.53l-.06.72c0,.19,0,.37,0,.55h-.2c0-.2,0-.4,0-.6l.09-1.08L116,41c0-.2,0-.41,0-.61a.65.65,0,0,0,0-.24.38.38,0,0,0-.11.11l-1.51,1.89-1.79,2.25-.76.94s-.06.1-.13.11,0-.06,0-.11a.59.59,0,0,1,0-.13l.08-.12,1.5-1.85,2.58-3.2a1.05,1.05,0,0,0,.08-.13l-.31,0-1.92.07-1.8.07-2,.08-1.28,0-.12,0v.15c0,.28,0,.57,0,.85,0,.49,0,1,0,1.46v.07l.06,1.37c0,.21,0,.42,0,.64s0,.4,0,.6h-.17l0-.48c0-.51,0-1-.05-1.53s0-.75,0-1.13,0-.9,0-1.35c0-.18,0-.37,0-.55s0-.34,0-.51c0-.47,0-.94,0-1.41,0-.19,0-.39,0-.58h.16s0,0,0,.07l0,.62c0,.4,0,.8,0,1.21,0,0,0,0,0,.09a.12.12,0,0,0,0,0L110,38.2c.13-.16.27-.31.41-.47l0,.05a.46.46,0,0,0,.07.07s0,.11-.09.14a.24.24,0,0,0-.1.1c-.08.15-.24.23-.31.38s-.21.27-.34.38-.09.13-.14.18c-.25.3-.51.6-.77.89l-.07.1.49,0,1.83-.07,1.84-.07.66,0,1.56-.06.75,0h.06a2.09,2.09,0,0,0-.23-.21l-.67-.58-.41-.34-.42-.36-.38-.34a.36.36,0,0,0,0-.23l.1.07,1.9,1.64.26.21,0,0a2.72,2.72,0,0,0,0-.28c0-.39-.07-.78-.1-1.17v-.25l.17,0,0,.17c0,.06,0,.11,0,.16a1.09,1.09,0,0,1,0,.18c0,.06,0,.12,0,.18s0,.1,0,.16,0,.11,0,.17,0,.12,0,.18a1.1,1.1,0,0,0,0,.18.92.92,0,0,0,0,.16.4.4,0,0,0,0,.18l.1-.09,1.19-1.31Zm3,4.06.11.06.5.23.09,0-.59-1Z"/><path class="cls-18" d="M92.88,84.87l.13,0a2.44,2.44,0,0,0,.1.24.83.83,0,0,0,0,.15l.06.11c0,.09.07.19.11.28s.07.21.11.31a2.12,2.12,0,0,0,.11.21l.09.21.09.23.12.3,0,.08.07-.17c.12-.35.25-.71.38-1.06l.33-.89.17.07a.15.15,0,0,1,0,.07c0,.09-.09.18-.12.27s-.12.32-.18.48l-.18.46a.91.91,0,0,0-.07.14,1.17,1.17,0,0,1-.09.32s0,.06,0,.12L95.77,85l.24-.25,0,.19-.67.75-.1.11a.24.24,0,0,0,.16-.11l.55-.5.48-.41a.13.13,0,0,0,.1.12l-.14.13,0,0h0l0,0-1.58,1.44-.56.52s0,0,0,.07l9.37,1.12h.06a0,0,0,0,0,0,0v0l-.14-.09-1.33-.86-2.93-1.88-.74-.48v-.19c.08,0,.13.11.22.15a2.6,2.6,0,0,1,.36.21l.26.15a.13.13,0,0,0,.13,0l-.13,0a.6.6,0,0,0-.08-.08l-.31-.24,0-.17s.07,0,.07.07l.06,0,.25.15,2.86,2,1.52,1,.08,0s0,.05.08,0l0-.15c0-.18-.08-.37-.13-.55-.19-.87-.39-1.74-.59-2.61-.11-.47-.21-1-.32-1.42l.16,0a.65.65,0,0,1,0,.13c.12.55.24,1.09.37,1.63.22,1,.44,2,.67,3a.69.69,0,0,0,0,.1l.53-.64.87-1.08.84-1,.41-.49c0,.07.06.14,0,.21h0l0,0-.1.12h0l0,0-.12.15,0,0-.13.16h0s0,0,0,0l0,0a.69.69,0,0,0-.11.13l-.22.27-.16.2c-.08.1-.17.19-.25.28l-.3.41-.79,1-.08.12.15,0L105,88l4.35-1.52,2.93-1,1.48-.52a.17.17,0,0,0,.13-.07H114a.11.11,0,0,1,.13.09l0,.05h0l-.37.13-.06,0h0l-.06,0h0s0,0,0,0l-.35.13c-.27.08-.53.18-.79.27l-.64.23-1,.37-2.49.87-3.9,1.38a.7.7,0,0,1-.35,0l-.74-.09L102,88.29l-.71-.08-1.11-.13-.7-.08-1.11-.14-.71-.08-.81-.09-.72-.09-1.1-.13-.7-.08-.37,0a.18.18,0,0,1-.11,0l-3.13-2-.46-.32v-.19l.34.22c.44.28.86.58,1.31.86.2.12.41.26.61.4l1,.67s0,0,.09,0,0-.1,0-.16l-.6-1.5Z"/><path class="cls-19" d="M108.82,67.61c.05-.16.1-.32.16-.48l.76-2.19c0-.13.08-.25.13-.37a.25.25,0,0,0,0-.25l-.62-1.21c-.08-.17-.17-.33-.25-.5l-.09-.19v-.14a.5.5,0,0,0,0-.13c.08,0,.08,0,.12.06.15.28.29.57.45.86s.29.57.48.87l0-.79-.46-.52-.3-.35v-.22l.17.18c.14.17.29.34.44.5a.24.24,0,0,0,.08.06v-.66H110a.29.29,0,0,1,0,.09c0,.24,0,.49,0,.74a.3.3,0,0,0,.06.18l.51.59.07.06.09-.06c.6-.46,1.2-.92,1.81-1.37l.55-.41v.21h0c-.09,0-.09,0-.1.08h0c-.12,0-.12,0-.14.1h0l0,0h0l0,0h0c-.06.09-.19.08-.24.18s-.1.1-.18.12-.12.09-.18.14A1,1,0,0,1,112,63s-.05.07-.1.08-.07.1-.11.1-.11.09-.19.12a.73.73,0,0,0-.18.14c-.06.05-.13.08-.18.13s-.13.07-.16.14a1.22,1.22,0,0,0-.33.27l.46.51a.2.2,0,0,0,.14.06l1,.15,1,.16,1,.16,1.08.17.52.07a.76.76,0,0,0,0-.21c0-.37,0-.75,0-1.12v-.07l.06-1c0-.22,0-.43,0-.64h.17c0,.07,0,.15,0,.23l-.06,1c0,.37,0,.74,0,1.1,0,0,0,.1,0,.14s0,.19,0,.29v.29l.35.06,1.28.19,1,.17,1,.15,1,.17.54.08a.75.75,0,0,0,.15,0,.62.62,0,0,0-.08-.12l-.54-.65-1.32-1.59c-.23-.28-.46-.57-.7-.84s-.27-.32-.39-.49l0,0s0-.06,0-.06-.07,0-.11,0a0,0,0,0,1,0,0c0-.08,0-.15.09-.19s.06,0,.08.09l.43.51,2.68,3.22.08.07v-.45c0-1.09,0-2.18,0-3.27,0-.65,0-1.31,0-2,0-.32,0-.65,0-1h.16s0,.09,0,.14c0,1,0,2,0,3v1.26c0,.72,0,1.43,0,2.15a5.7,5.7,0,0,1,0,.71c0,.38-.08.77-.13,1.16,0,.23,0,.47-.08.7-.07,0-.13,0-.2,0l.06-.57c0-.32.07-.64.1-1,0-.12,0-.25,0-.4l-.49.29c0-.06,0-.11.06-.15a.16.16,0,0,0,0-.09h0l0,0,.18-.14,0,0-5.36-.83a.74.74,0,0,0,0,.25c0,.31,0,.62-.05.92H116v-.19l0-.43c0-.13,0-.27,0-.4v-.15l-4.55-.67s0,.06.06.08l1,1.12.39.46v.22l-.27-.28-1-1.18-.44-.49c-.28,0-.56-.08-.86-.1l.07.08,1.75,1.62.08.09a.19.19,0,0,0,.06.2s0,.08,0,.13l-.44-.4-1.62-1.53-.21-.18c0,.07-.05.13-.07.19-.34,1-.67,1.92-1,2.88,0,.06,0,.11-.07.16s0-.06,0-.08S108.82,67.66,108.82,67.61Zm1.25-4.2a3.52,3.52,0,0,0,0,.79,1.91,1.91,0,0,0,.21-.14.7.7,0,0,0,.21-.14Zm.89,1a2.1,2.1,0,0,0-.31-.35l-.3.21s0,0-.06.07A5.08,5.08,0,0,0,111,64.41Z"/><path class="cls-20" d="M103,83.34l-.16,0s0-.1,0-.15l-.45-2-.45-2c0-.16-.08-.32-.12-.51l-.1.11c-.63.81-1.27,1.62-1.91,2.42,0,0-.08.07-.11.11l-.14-.09.22-.28a.1.1,0,0,0-.07,0,3.45,3.45,0,0,0-.26.28s0,0-.09,0a.11.11,0,0,1-.08-.14h0l0,0h0l0,0,0-.07,1.57-1.72.18-.22a.12.12,0,0,0,.07-.11l-.1.08-.1.05L98.17,81l-.63.4,0-.18.11-.08.85-.57c.34-.22.68-.44,1-.67l2-1.35a.39.39,0,0,0,.1-.08l-.27-.22,0-.2.25.18.18.12.31-.23,0,.2-.08,0c0,.06,0,.06,0,.07l.17,0,1,.19,2.14.41,2.17.42,2.65.52.26,0-.09-.11-.74-.87-.47-.55,0,0h0l0,0-.12-.15s0-.11.1-.13l.17.21c.07.08.16.13.2.23a9,9,0,0,1,.64.73c.21.23.41.46.61.7l.07-.11.48-1c.12-.25.25-.5.38-.75.09,0,.1.07.12.14a1.59,1.59,0,0,1-.14.26c-.12.24-.25.48-.35.72s-.17.39-.26.58c0,0,0,0,0,.08l3.09-1.36h0v0l-.12-.06-.53-.24v-.14l.58.24.3.14a.18.18,0,0,0,.12,0l.29-.11,0,.17-.13.09.07,0c.28.1.55.2.82.32a.09.09,0,0,0,.12,0v-.4h.18V79l.1,0,.41-.27c.2-.12.38-.27.59-.38a.14.14,0,0,1-.07.15l-.18.11v.09s0,.06-.06.07-.14.1-.22.13-.1.11-.16.12-.12.08-.18.11a.62.62,0,0,0-.17.11.23.23,0,0,0-.07.07,1.66,1.66,0,0,0-.13.35c0,.11,0,.22-.08.33s-.09.3-.14.45c-.13.44-.27.88-.41,1.32h-.17l0-.14c.19-.65.39-1.3.57-2a.89.89,0,0,0,.07-.28h0l-1.28.27-3.17.65-.1,0,.28.42.39.58,0,0a0,0,0,0,1,0,0l0,0,.15.2c0,.08,0,.15-.11.15l-.09-.13-.81-1.16a.7.7,0,0,0-.08-.1l-1,1.25-.46.54,0-.09a.33.33,0,0,0,.07-.21l0-.07.92-1.11.3-.37-.11,0-.56-.11-2.11-.4L105,79.21l-2.89-.56a.35.35,0,0,0-.18,0s0,.08,0,.11c.12.57.25,1.13.38,1.7.17.77.35,1.55.52,2.33C102.91,83,103,83.15,103,83.34Zm11.46-4.62-.89.39c-.29.12-.57.26-.85.39l-.86.38a.59.59,0,0,0-.14.07l.68-.14,2.88-.6.17,0Z"/><path class="cls-14" d="M109,62.21c0-.06,0-.06-.12-.06a.5.5,0,0,1,0,.13v.14l-.15-.28-.26-.51a.28.28,0,0,1,0-.18c.09-.59.17-1.17.26-1.76s.15-1.06.22-1.6.14-.88.2-1.33.11-.72.16-1.09a.77.77,0,0,0,0-.15,1.55,1.55,0,0,0,0-.48.48.48,0,0,1,0-.12l.17,0,0,.18.41-.31V55l-.08.06,0,0h0l0,0-.16.16,6.56,4.06.09,0c0-.08,0-.15,0-.22s0-.07,0-.11c0-.27-.06-.54-.1-.81l-.09-.76c0-.19,0-.4,0-.6h.2c0,.11,0,.21,0,.32,0,.33.09.67.13,1s.08.73.13,1.1c0,0,0,.06,0,.07l.07,0c.76-.71,1.53-1.41,2.3-2.11l.51-.45a.14.14,0,0,0,.05.16l-.05.06-1.52,1.39-1,1-.27.25a1.58,1.58,0,0,1,.12.15l1.49,1.8c.14.16.28.34.42.51-.08,0-.08.11-.09.19l-.08-.09-1.12-1.34-.72-.88s0-.06-.09,0c0,.19,0,.38,0,.57,0,.39,0,.79-.07,1.18l0,.52h-.17V62c0-.3,0-.61,0-.92h0l.06-1.19a.07.07,0,0,0,0-.1l-.17.12-2.47,1.84-.57.42V62l.12-.11,2.63-2,.06-.06h-.1L110,61.27h0l0,0a.81.81,0,0,0,0,.15l0,.69h-.18l-.05-.86c-.35.09-.69.17-1,.28l.07.09.34.41v.22S109,62.2,109,62.21Zm1-1.18.21,0,3-.74,2.91-.71.11,0-6.51-4h-.06a2.64,2.64,0,0,0,0,.4l.09,1.45c0,.28,0,.57,0,.85s0,.44,0,.66l.06.9c0,.27,0,.54,0,.82S109.92,60.86,109.93,61Zm-.52-4.77a.73.73,0,0,0,0,.16c-.24,1.6-.49,3.2-.73,4.81v.08l0,0c.18,0,.36-.09.54-.13s.36-.08.54-.14v-.21c0-.41-.07-.81-.09-1.22s0-.54-.05-.82,0-.37,0-.56l-.06-.89c0-.22,0-.45,0-.67S109.43,56.43,109.41,56.26Z"/><path class="cls-21" d="M109.5,54.88l-.17,0c0-.24-.06-.47-.08-.71s-.06-.72-.1-1.08-.05-.65-.08-1l-.09-1-.09-1-.09-1c0-.33,0-.67,0-1s0-.95,0-1.42,0-.86,0-1.3v-.12h.17l0,.33.06,1.71c0,.39,0,.78,0,1.17,0,0,0,.06,0,.08l.14-.18.84-1,1.57-2,.23-.27a.59.59,0,0,0,0,.13s0,.08,0,.11a1.14,1.14,0,0,1-.21.28l-.22.32-2,2.48c-.06.07-.11.15-.19.24l.17,0,1-.26.38-.08a.08.08,0,0,1-.07.09,2.29,2.29,0,0,1-.44.09l-.14,0a1.17,1.17,0,0,0-.41.14v0h0l0,0c-.1,0-.22,0-.33.11l5.92,1.44h.06s0,0,0-.06l.06-.71c0-.24,0-.47,0-.71,0,0,0,0,0-.05l.14,0c0,.27,0,.54,0,.81a1.85,1.85,0,0,0,0,.47l0,0,0,0,0,0,.67-.84c.13-.17.27-.33.41-.5a.22.22,0,0,0,.08.15l-.33.42a.3.3,0,0,0-.09.18l.12-.11.52-.48a1.21,1.21,0,0,1,.14-.1s0,0,0,0a.11.11,0,0,0,.11,0,2.86,2.86,0,0,0-.41.36s0,.07-.1.09a.25.25,0,0,0-.13.12,1.7,1.7,0,0,1-.3.3l-.32.3s0,0,0,.07l.06,0,2.48-1.07.68-.29,0,.17-.06,0-.56.24-2.86,1.23-.11.06c.12.06.17.18.3.2a3.84,3.84,0,0,0,.54.35,1.64,1.64,0,0,0,.39.22,1.49,1.49,0,0,0,.29.2l.31.19.26.15.06,0L118,52a.05.05,0,0,0,.06,0h0l0,0,.06,0,.07,0,0,0s0,0,.07,0h0l.05,0,.06,0,.06,0,0,0,0,.09,0,.09-.14-.07-2.66-1.64a.63.63,0,0,0-.2-.1,1.42,1.42,0,0,0,0,.29l.09.73c0,.27.07.54.1.81l.06.55h-.18l-.06-.51c0-.34-.09-.68-.13-1s-.05-.48-.08-.72a.37.37,0,0,0,0-.14l-.1.07-.62.5-2,1.61-2.15,1.75L110,55v-.25h0a.05.05,0,0,0,.06,0l.13-.12,1.89-1.51,2-1.64.94-.76s.1-.05.1-.12h-.09l-3.35-.8-2.57-.61a.29.29,0,0,0-.16,0c0,.1,0,.2,0,.29s0,.35.05.53l.09.92.09,1c0,.44.08.88.13,1.31s.07.72.1,1.08c0,.14,0,.28,0,.42A2.17,2.17,0,0,0,109.5,54.88Z"/><path class="cls-22" d="M115.57,48.87l-.14,0c0-.3,0-.61,0-.92,0,0,0,0,0-.07s0-.25,0-.37,0,0,0-.06h-.08l-.47.11-2.63.64-2.54.62h-.1v0a1.17,1.17,0,0,1,.41-.14l.14,0a2.29,2.29,0,0,0,.44-.09.08.08,0,0,0,.07-.09h0c.05,0,.11,0,.14,0h0s.1,0,.14,0h0s.1,0,.14,0h0s.11,0,.14,0h0s.11,0,.14,0h0s.1,0,.13,0h0c.05,0,.1,0,.14,0h0c.05,0,.1,0,.14,0s.05,0,.08,0l2.6-.65,1-.23,0-.11c0-.16,0-.32,0-.48s0-.44,0-.67,0-.34,0-.51l.06-.68c0-.31,0-.63.08-1h.2l0,.44c0,.26,0,.51,0,.76l-.09,1.15c0,.26,0,.52,0,.78a1.37,1.37,0,0,1,0,.19,6.37,6.37,0,0,0,.69-.16l.67-.17.68-.17.67-.16.87-1.14a.87.87,0,0,0,0-.1l0,0c0,.1.06.11.17.08h.07l.35.55h0a2.93,2.93,0,0,0,.1-.53c.07,0,.15,0,.19-.06h0c0,.08.13.07.2.08l-.07.19c.42.6.83,1.2,1.25,1.79l0,0V45.56c0-.06,0-.12,0-.18H122c0,.12,0,.24,0,.36,0,1,0,2.11,0,3.17l0,1.65v.16h-.18c0-.28,0-.57,0-.85,0-.63,0-1.25,0-1.88a.49.49,0,0,0,0-.12c-.14,0-.91.34-1.1.43a1.52,1.52,0,0,0,0,.21l.09.47a.25.25,0,0,1-.17,0c-.06-.18-.08-.39-.15-.58l-.11,0-.57.25-.56.23,0-.17h0c.08.06.11.05.15-.06h0l0,0h0c.08.05.11,0,.15-.07l.1,0h.09s0,0,.06-.07h0l.07,0,.18-.08.07,0a.5.5,0,0,0,.21-.12,4.21,4.21,0,0,0-.11-.6c0-.21-.09-.41-.13-.61s-.08-.4-.14-.61l-.12.09-1.7,1.57a4.67,4.67,0,0,1-.68.57v-.21l0-.05,1.22-1.13.73-.67.18-.17h-.07l-1,.22a.31.31,0,0,0-.2.13l-.08.1c-.47.57-.91,1.17-1.39,1.73l-.27.33a.22.22,0,0,1-.08-.15h.1c.07,0,0-.11.07-.15l.08,0v-.13l0,0,0,0h0l0,0,0-.07,1-1.31.18-.24-.86.21-.84.2c-.27.08-.55.12-.82.21a1.65,1.65,0,0,0,0,.21c0,.09,0,.17,0,.26l-.06.67C115.6,48.61,115.59,48.74,115.57,48.87Zm4.63-2.42a1.23,1.23,0,0,0,0,.13l.3,1.27c0,.06,0,.11,0,.18s0,.07.06.09l.52-.22c.17-.08.34-.14.52-.24Zm-1.43,0,1.07-.27,0,0-.37-.63s-.06,0-.07,0c-.16.21-.33.41-.47.63S118.85,46.31,118.77,46.42Zm2.44.61,0,0-.88-1.23a1.49,1.49,0,0,0-.17.44C120.54,46.48,120.87,46.76,121.21,47Z"/><path class="cls-23" d="M101.39,78.07l0,.2-.06,0-1.48-1.11L95.63,74l-.13-.08v0c.09.51.19,1,.29,1.52s.22,1.18.34,1.78.21,1.1.31,1.65c0,.17,0,.33.08.49l-.16,0-.12-.56-.3-1.6c-.1-.53-.2-1.06-.31-1.6,0-.2-.08-.4-.11-.6a.28.28,0,0,0,0,.18c0,.17,0,.35,0,.53l0,1.13c0,.6,0,1.2,0,1.79,0,.17,0,.35,0,.52v.21h-.17c0-.06,0-.12,0-.17l0-1c0-.36,0-.73,0-1.1l0-1-.06-1.76c0-.17,0-.34,0-.53l-2.75,1.29c-1.16.54-2.65,1.24-2.76,1.32l.11.12.75.73L92.36,79l.2.22-.1.18-.1-.08-1.18-1.2L90,76.9a.35.35,0,0,0-.11-.07s0,.06,0,.08l.87,2.19a.39.39,0,0,1,0,.21l-.11.11s0,0,0,0c-.35-.86-.7-1.73-1-2.6a1.5,1.5,0,0,1-.09-.18l0,.1-.23.5c-.3.65-.6,1.31-.89,2a.91.91,0,0,1-.15.23l-.13,0,.26-.57c.36-.78.72-1.57,1.09-2.35l.06-.15c.25-.14,5.71-2.68,5.84-2.71l.19.16L98.63,76a2.25,2.25,0,0,0,.3.24.43.43,0,0,1,.13.09s.07.05.11.08.2.15.3.24l.21.14.22.17a4,4,0,0,0,.33.24l.34.25a.71.71,0,0,0,.14.1s0,0,.06,0l.08.07a.06.06,0,0,0,.06,0l.09.06s0,0,.06,0h0l0,0h0l.05,0,.09.07.05,0Z"/><path class="cls-24" d="M115.83,78.61h-.18v-.38l-.17.06-.48.21a.48.48,0,0,1-.23.07l0-.17.76-.36.13-.06c0-.29,0-.56,0-.84s0-.65,0-1c0-.5,0-1,0-1.5h.16v.19c0,.13,0,.25,0,.38,0,.43,0,.87,0,1.31l0,1.35s0,0,0,0l1.61-.71,3.23-1.44.11-.05-.4-.45L120.2,75a.13.13,0,0,1,.08-.14c.1.11.2.23.31.34s.19.23.31.34a.42.42,0,0,1,0-.06c0-.14,0-.29,0-.44,0-.3.07-.6.1-.89s0-.38.07-.56h.18c0,.22,0,.43-.06.65s0,.32,0,.48c0,.36-.07.73-.11,1.09a.4.4,0,0,1-.08.16l-.65.84L117.87,80l-.19.23,0-.07-.05-.11a1.3,1.3,0,0,1,.1-.15l.42-.54,2-2.59.36-.5.06-.08s-.07,0-.09,0a1,1,0,0,0-.18.1L117,78.54a1,1,0,0,1-.28.14v-.09l.18-.11a.14.14,0,0,0,.07-.15h0l0,0s0,0,0,0,.06,0,.08,0,.05,0,0-.06l.12-.09L118.9,77l.87-.58.13-.07a.18.18,0,0,0-.16,0l-.1,0L116,78.05l-.11.06c0,.11,0,.22,0,.33Z"/><path class="cls-24" d="M113.51,78.15v.14l-.08,0-1.17-.5-.13,0-.08.15-.24.48c0-.07,0-.13-.12-.14s.09-.2.14-.31.08-.16.12-.26l-5.19-2.31,0,0c0,.06.1.13.16.19l1.85,2.16.41.49c-.06,0-.07.09-.1.13l-.13-.12c-.11-.14-.23-.27-.35-.41l-1.21-1.41-.95-1.1s-.06-.1-.13-.1l-.08.06-3.32,2.56-.7.54,0-.2.57-.45,3.44-2.64.11-.09,0,.09h.27l.15.06,3.42,1.5,1.8.79a.29.29,0,0,0,.16,0,.41.41,0,0,1,0-.09l.52-1,.53-1.08.33-.64c0,.1.09.1.15.11l-.21.44h0c-.07.12-.12.25-.19.38l-.42.82c-.16.32-.33.64-.46,1a1.36,1.36,0,0,0-.11.28l.62.27Z"/><path class="cls-25" d="M120.54,45.39c-.07,0-.15,0-.2-.08l0-.08,1-1.95a.86.86,0,0,0,.07-.21l-.54.66-.34.41a.46.46,0,0,0-.07.14l-.15,1c0,.09-.12.06-.19.06s-.16-.21-.28-.3l-.21.27h-.07c-.11,0-.13,0-.17-.08l0,0a.36.36,0,0,1-.07-.1c-.47-.78-.94-1.56-1.4-2.34l-.32-.55.09-.06a.34.34,0,0,0,.06-.06l.1.17,1.62,2.77.07.09c.06-.1.15-.17.2-.27l-.09-.14-1-1.45c-.14-.21-.29-.41-.44-.62s-.17-.28-.26-.41.07-.09.14-.09l.06.09c.46.63.91,1.27,1.36,1.9.13.18.25.36.38.53l0,0a3.85,3.85,0,0,1,.27-.3.78.78,0,0,0,.25-.51c.07-.47.16-.93.24-1.39,0-.1.05-.2.07-.3l.17,0v0l-.27,1.48v.09c.14-.13,1.07-1.34,1.13-1.46l-.11-.06v-.1a1.06,1.06,0,0,0,.35,0c0,.19,0,.38,0,.57,0,.76,0,1.52,0,2.28,0,.1,0,.21,0,.31h-.18c0-.06,0-.12,0-.19V42.84c-.05,0-.06,0-.07.08l-1,2.27C120.61,45.26,120.57,45.32,120.54,45.39Zm-.58-.51a2.07,2.07,0,0,0,.08.2s0,.07.08,0a1.87,1.87,0,0,0,0-.25c0-.09,0-.18.06-.31A3.08,3.08,0,0,0,120,44.88Z"/><path class="cls-26" d="M121.8,50.72H122c0,.15,0,.3,0,.44,0,.56,0,1.13,0,1.69,0,1.47,0,2.93,0,4.4v.94c0,.32,0,.64,0,1,0,0,0,.07,0,.11h-.16a.43.43,0,0,1,0-.11c0-.24,0-.48,0-.72V56c0-.37,0-.75,0-1.13,0,0,0-.07,0-.1l-.06,0-.39.35-1.49,1.37-.39.34a.14.14,0,0,1-.05-.16s0,0,0,0,0,0,0,0l.07-.07c.14,0,.17,0,.19-.17l.09-.1c.24-.2.45-.43.7-.61a7.81,7.81,0,0,1,.59-.56c.16-.15.34-.3.5-.46a.35.35,0,0,0,.13-.14l0,0-2.64-1.63-.62-.4,0-.09,0-.09.15.08,3,1.84.09,0a.2.2,0,0,1,0,0L121.5,53c-.07-.32-.15-.65-.23-1a.48.48,0,0,1,0-.12.18.18,0,0,1,.14,0l0,0,.27,1.21a1.7,1.7,0,0,0,.1.37.71.71,0,0,0,0-.14c0-.65,0-1.29,0-1.94Z"/><path class="cls-27" d="M106.55,75.05h-.27l0-.09c0-.08,0-.16.07-.23l.39-1.14c.17-.48.34-1,.5-1.43.09-.25.18-.49.28-.74v0l.19-.53c.06,0,.08.06.13.07l0,.08a0,0,0,0,0,0,0l0,.08s0,0,0,0a.15.15,0,0,1,0,.07c0,.07,0,.15-.08.22s0,.14-.07.22a1.76,1.76,0,0,1-.09.2,1.85,1.85,0,0,1-.12.33,1.06,1.06,0,0,1-.06.19.56.56,0,0,0-.07.18,1.33,1.33,0,0,1,0,.19c-.06.15-.11.31-.17.47l-.19.55a.45.45,0,0,0,0,.11s-.06.07,0,.12,0,.06,0,.11a.37.37,0,0,1,0,.14c-.06.16-.12.33-.17.5s0,.06,0,.1l.1,0,1-.52c.08,0,.17-.07.25-.12l.49-.27,3.81-2,2.21-1.17c.13-.06.26-.12.38-.19a.39.39,0,0,0,0,.21h0l0,0-1.2.64-4.27,2.27L106.66,75Z"/><path class="cls-16" d="M117.6,80.09l.05.11,0,.07-.3.41c-.72.94-1.44,1.89-2.17,2.83l-1,1.35a.39.39,0,0,1-.08.1.11.11,0,0,0-.13-.09h-.09a1.34,1.34,0,0,0-.11-.14l-1.58-2.31-.44-.65c.1,0,.1-.07.11-.15l.06.08.76,1.1,1.24,1.79.09.1,0-.12c.21-.7.41-1.39.61-2.08l.24-.76h.17a.94.94,0,0,1,0,.16l-.39,1.3-.32,1a.15.15,0,0,0,0,.13l0-.05,2.79-3.66Z"/><path class="cls-27" d="M121.31,73.56h-.18a2.44,2.44,0,0,1,0-.27c0-.29.07-.59.1-.88s.05-.53.08-.79l.09-.9.09-.81.09-.83c0-.25,0-.5.08-.75.07,0,.13,0,.2,0,0,.17,0,.34,0,.51,0,.44-.1.87-.14,1.31s-.09.76-.13,1.14,0,.54-.08.81l-.09.85c0,.16,0,.32,0,.48Z"/><path class="cls-28" d="M107.82,70.92s-.07-.08-.13-.07l0-.13,1-3,0-.11s0,.09.05.12,0,.06,0,.08,0,0,0,.06a.52.52,0,0,1,0,.24c-.27.79-.54,1.58-.82,2.37C107.94,70.63,107.88,70.78,107.82,70.92Z"/><path class="cls-26" d="M135.5,59.75a.44.44,0,0,1,.27,0s-.08,0-.12,0l-.14,0h-.12l.18-.06Z"/><path class="cls-26" d="M135.38,59.86a.2.2,0,0,1-.17,0A.25.25,0,0,1,135.38,59.86Z"/><path class="cls-2" d="M80,58.55a.08.08,0,0,1-.09,0S79.93,58.55,80,58.55Z"/><path class="cls-16" d="M113.48,85.21l.06,0Z"/><path class="cls-16" d="M113.59,85.17l.06,0Z"/><path class="cls-20" d="M101.06,77.83s-.06,0-.06,0Z"/><path class="cls-20" d="M100.91,77.72a.06.06,0,0,1-.06,0Z"/><path class="cls-20" d="M100.77,77.61s0,0-.06,0Z"/><path class="cls-28" d="M107.5,71.38v0Z"/><path class="cls-2" d="M83.13,56.52l0,0Z"/><path class="cls-20" d="M101.1,77.86l0,0Z"/><path class="cls-20" d="M101.15,77.89l-.05,0Z"/><path class="cls-20" d="M101.29,78l-.05,0Z"/><path class="cls-16" d="M114,85h0Z"/><path class="cls-16" d="M113.42,85.23s0,0,0,0h0Z"/><path class="cls-29" d="M116,37.84v.25c0,.39.07.78.1,1.17a2.72,2.72,0,0,1,0,.28l0,0-.26-.21-1.9-1.64-.1-.07-.11-.1,0,0h0l0,0h0l-.06,0-.07-.07,0,0h0l0,0h0l0,0-.53-.47-.66-.57-.09-.09,3.4-3.95h0v0c0,.41,0,.82.08,1.22s.07.94.11,1.4.07,1,.11,1.42.07.93.1,1.4Z"/><path class="cls-29" d="M113.83,37.89l.38.34.42.36.41.34.67.58a2.09,2.09,0,0,1,.23.21h-.06l-.75,0-1.56.06-.66,0-1.84.07-1.83.07-.49,0,.07-.1c.26-.29.52-.59.77-.89,0-.05.08-.13.14-.18s.19-.28.34-.38.23-.23.31-.38a.24.24,0,0,1,.1-.1c.06,0,.07-.09.09-.14a1.29,1.29,0,0,0,.25-.27l.06-.07a6.57,6.57,0,0,0,.61-.68c.16-.17.31-.35.47-.53l.08.06,1.36,1.17Z"/><path class="cls-29" d="M111.9,36.05,109,33.51a.08.08,0,0,1,0,0v0h0l6.26-1.32h.05v0Z"/><path class="cls-29" d="M110.45,37.73c-.14.16-.28.31-.41.47l-1.35,1.55a.12.12,0,0,1,0,0s0-.07,0-.09c0-.41,0-.81,0-1.21l0-.62s0-.05,0-.07c0-.51,0-1,0-1.53l0-1.45c0-.35,0-.69,0-1v-.16s.08,0,.1.08l2.89,2.45-.29.34-.64.74,0,.06,0,0h0l0,0h0l0,0s0,0,0,0h0l-.13.15,0,0h0l0,0h0v0Z"/><path class="cls-30" d="M118,37.71l-.39.42-1.19,1.31-.1.09a.4.4,0,0,1,0-.18.92.92,0,0,1,0-.16,1.1,1.1,0,0,1,0-.18c0-.06,0-.12,0-.18s0-.11,0-.17,0-.11,0-.16,0-.12,0-.18a1.09,1.09,0,0,0,0-.18s0-.1,0-.16l0-.17v-.2c0-.5-.07-1-.11-1.52s-.07-1-.11-1.52-.07-1-.1-1.51c0-.18,0-.35,0-.53v-.09c.06,0,.07.05.09.08l1,1.69,1.64,2.72,0,.08-.16.2,0,0h0l0,0h0l0,0h0l0,0h0v0l-.2.22,0,0h0l0,0h0l0,0Z"/><path class="cls-29" d="M119.13,37.85a3,3,0,0,0,.16.31l1.54,2.58a.3.3,0,0,1,0,.26l-.12.61a.18.18,0,0,1,0,.09l-4.22-1.86-.09-.05.13-.11L118.91,38s.09-.05.09-.11Z"/><path class="cls-30" d="M120.44,34.88l-1.72,1.95a.56.56,0,0,1-.12-.16l-.87-1.43L116,32.36a.59.59,0,0,1,0-.08c.06,0,.09,0,.13,0l1.13.66,2.4,1.39.72.42Z"/><path class="cls-30" d="M121.48,37.77a2.3,2.3,0,0,0-.06.28L121,40.23c0,.1,0,.2-.06.33a1.26,1.26,0,0,1-.1-.15l-1.15-1.85-.44-.71-.07-.08s.07-.11.12-.12.08-.09.13-.1.12-.09.18-.12l.19-.13.19-.13.19-.14.18-.14,1.33-1,.07,0a.2.2,0,0,1,0,.07c-.06.29-.11.59-.17.88l-.15.87Z"/><path class="cls-31" d="M116.29,32.18l5.5,1.15c-.07.12-1,1.26-1.16,1.39h0l-4.24-2.46-.06,0Z"/><path class="cls-31" d="M119.35,37.45l-.19.12c-.12-.17-.22-.36-.33-.54a1.13,1.13,0,0,1,.1-.13l1.26-1.41c.14-.17.29-.33.44-.5l1.1.65c0,.07-.07.09-.11.12l-1.53,1.13-.39.3s0,0,0,0h0l0,0-.07,0,0,0h0l0,0-.07,0,0,0h0Z"/><path class="cls-32" d="M121.77,41.94l0-.08,0-.06a7.15,7.15,0,0,0-.5-.84.3.3,0,0,0,0-.08.2.2,0,0,1,0-.17l.48-2.45c0-.15,0-.3.08-.45s0-.23.07-.35,0-.14,0-.2,0-.12,0-.18,0-.14.07-.2c0,.31,0,.62,0,.93,0,0,0,.07,0,.1,0,.87,0,1.74,0,2.61,0,.37,0,.74,0,1.12v.28Z"/><path class="cls-33" d="M120.77,34.8c.24-.28,1-1.09,1.15-1.18,0,.61,0,1.22,0,1.83h-.05l-1-.61Z"/><path class="cls-32" d="M119,37.73l-.35.24-1.54,1.1-.13.08a1.6,1.6,0,0,1,.33-.4l.78-.87.18-.19.47-.48s0,0,.06.08.13.24.19.36S119,37.7,119,37.73Z"/><path class="cls-17" d="M113.55,37.45l.06,0A.05.05,0,0,1,113.55,37.45Z"/><path class="cls-17" d="M118,37.7l0,0Z"/><path class="cls-17" d="M110.48,37.7v0h0S110.48,37.69,110.48,37.7Z"/><path class="cls-17" d="M118,37.67l0,0Z"/><path class="cls-17" d="M110.5,37.67l0,0Z"/><path class="cls-17" d="M118,37.63l0,0Z"/><path class="cls-17" d="M110.53,37.63l0,0Z"/><path class="cls-17" d="M113.66,37.53l0,0Z"/><path class="cls-17" d="M113.62,37.5l0,0Z"/><path class="cls-17" d="M119.35,37.45l0,0Z"/><path class="cls-17" d="M110.69,37.45h0Z"/><path class="cls-17" d="M119.39,37.42l0,0Z"/><path class="cls-17" d="M110.72,37.42l0,0Z"/><path class="cls-17" d="M118.27,37.38v0h0Z"/><path class="cls-17" d="M113.44,37.35l0,0Z"/><path class="cls-17" d="M110.75,37.38l0,0Z"/><path class="cls-17" d="M119.49,37.35l0,0Z"/><path class="cls-17" d="M118.29,37.35l0,0Z"/><path class="cls-17" d="M113.41,37.32l0,0Z"/><path class="cls-17" d="M110.78,37.35l0,0Z"/><path class="cls-17" d="M119.53,37.31l0,0Z"/><path class="cls-17" d="M118.33,37.31l0,0Z"/><path class="cls-17" d="M113.37,37.29l0,0Z"/><path class="cls-17" d="M118.36,37.28l0,0Z"/><path class="cls-17" d="M119.63,37.24l0,0Z"/><path class="cls-17" d="M118.39,37.24l0,0Z"/><path class="cls-17" d="M119.68,37.21s0,0,0,0Z"/><path class="cls-34" d="M99.64,81.38s.08-.07.11-.11c.64-.8,1.28-1.61,1.91-2.42l.1-.11c0,.19.08.35.12.51l.45,2,.45,2s0,.1,0,.15c.11.47.21,1,.32,1.42.2.87.4,1.74.59,2.61,0,.18.09.37.13.55l0,.15s-.06,0-.08,0l-.08,0-1.52-1-2.86-2-.25-.15-.06,0s0-.06-.07-.07l-.51-.36L97.81,84l-.11-.08a1.7,1.7,0,0,1,.1-.14c.21-.28.44-.55.65-.83.09-.11.16-.22.24-.33s.1-.12.15-.19l.42-.53Z"/><path class="cls-34" d="M92.56,79.25l-.2-.22-1.78-1.77-.75-.73-.11-.12c.11-.08,1.6-.78,2.76-1.32l2.75-1.29c0,.19,0,.36,0,.53l.06,1.76,0,1c0,.37,0,.74,0,1.1l0,1s0,.11,0,.17c0,.28,0,.56,0,.83s0,.76,0,1.14l0,.62v.16L95.4,82c-.31-.31-.62-.61-.92-.92L92.63,79.3A.18.18,0,0,0,92.56,79.25Z"/><path class="cls-34" d="M96.51,79.35c0-.16-.05-.32-.08-.49-.1-.55-.21-1.1-.31-1.65s-.23-1.19-.34-1.78-.2-1-.29-1.52v0l.13.08,4.18,3.15,1.48,1.11.06,0,.27.22a.39.39,0,0,1-.1.08l-2,1.35c-.33.23-.67.45-1,.67l-.85.57-.11.08-.43.28-.13.07c-.07-.33-.13-.65-.19-1s-.15-.79-.22-1.18Z"/><path class="cls-34" d="M96.43,85l.14-.13L97,84.5l.3-.28.53.34.6.38.74.48,2.93,1.88,1.33.86.14.09v0a0,0,0,0,1,0,0h-.06l-9.37-1.12s0,0,0-.07l.56-.52,1.58-1.44,0,0h0Z"/><path class="cls-34" d="M88.2,79.39a.91.91,0,0,0,.15-.23c.29-.65.59-1.31.89-2l.23-.5,0-.1a1.5,1.5,0,0,0,.09.18c.34.87.69,1.74,1,2.6,0,0,0,0,0,0a1.22,1.22,0,0,0,.09.27c.24.6.49,1.2.73,1.81.1.26.22.52.32.78l.06.15h0a0,0,0,0,1,0,0H90.2l-3.26,0-.06,0a.69.69,0,0,0,0-.1l1-2.15A1.55,1.55,0,0,0,88,79.9a1.11,1.11,0,0,1,.07-.16A.73.73,0,0,0,88.2,79.39Z"/><path class="cls-35" d="M90.79,79.31a.39.39,0,0,0,0-.21l-.87-2.19s0,0,0-.08a.35.35,0,0,1,.11.07l1.22,1.25,1.18,1.2.1.08L93,80l1.41,1.43.91.93.07.09h-3.3l0-.11c-.19-.49-.38-1-.59-1.47-.07-.17-.14-.33-.2-.5s-.12-.28-.17-.43A2.34,2.34,0,0,0,91,79.7a2.26,2.26,0,0,1-.13-.33A.09.09,0,0,0,90.79,79.31Z"/><path class="cls-35" d="M92.88,84.87l.14.38.6,1.5c0,.06,0,.11,0,.16s-.06,0-.09,0l-1-.67c-.2-.14-.41-.28-.61-.4-.45-.28-.87-.58-1.31-.86l-.34-.22h0l-.11-.07h0l-.11-.07h0l0,0a.91.91,0,0,0-.16-.11l-2.57-1.7-.11-.08v0a0,0,0,0,1,0,0h.09l5,.76.24.59.3.76A.41.41,0,0,0,92.88,84.87Z"/><path class="cls-35" d="M94.67,84.83l-.33.89c-.13.35-.26.71-.38,1.06l-.07.17,0-.08-.12-.3-.09-.23-.09-.21a2.12,2.12,0,0,1-.11-.21c0-.1-.06-.21-.11-.31s-.08-.19-.11-.28l-.06-.11a.83.83,0,0,1,0-.15,2.44,2.44,0,0,1-.1-.24l-.3-.76c-.06-.17-.13-.33-.2-.5a.45.45,0,0,0,0-.08l1.26.2,1.26.19Z"/><path class="cls-33" d="M95.61,79.39v-.21c0-.17,0-.35,0-.52,0-.59,0-1.19,0-1.79l0-1.13c0-.18,0-.36,0-.53a.28.28,0,0,1,0-.18c0,.2.08.4.11.6.11.54.21,1.07.31,1.6l.3,1.6.12.56c.07.4.14.8.22,1.2s.12.66.19,1v.09c-.32.24-.66.48-1,.71a.08.08,0,0,1-.07-.1c0-.16,0-.33,0-.5,0-.45,0-.9,0-1.35l0-1S95.61,79.42,95.61,79.39Z"/><path class="cls-33" d="M101.09,79.16l-.18.22L99.34,81.1l0,.07,0,0h0l0,0h0c-.14.15-.28.29-.41.44s-.3.32-.44.49l-1,1.11s0,0,0,0l0,0L97,81.79l.53-.37.63-.4L101,79.18l.1-.05Z"/><path class="cls-33" d="M92.42,83.25l-.27-.59v0h3.27l0,0c-.09.34-.21.68-.31,1l0,0Z"/><path class="cls-33" d="M96,84.76l-.24.25-1.61,1.75c0-.06,0-.09,0-.12a1.17,1.17,0,0,0,.09-.32.91.91,0,0,1,.07-.14l.18-.46c.06-.16.11-.32.18-.48s.08-.18.12-.27a.15.15,0,0,0,0-.07,2.56,2.56,0,0,0,.11-.24c.08-.2.15-.4.23-.61a1.47,1.47,0,0,0,.07-.17l1.33.22-.07.1-.44.49Z"/><path class="cls-32" d="M92,82.63l.22.6h-.1c-1.28-.21-2.55-.41-3.82-.63.4,0,.81,0,1.22,0l1.24,0Z"/><path class="cls-33" d="M95.88,82.52l.94-.61a3.39,3.39,0,0,1,.1.52L97,83a3,3,0,0,1,.07.52l0,0c-.28-.2-.55-.41-.82-.62A3.27,3.27,0,0,1,95.88,82.52Z"/><path class="cls-33" d="M95.65,82.76l1.22,1a.16.16,0,0,1-.19.1l-.6-.08-.64-.11-.11,0A4.43,4.43,0,0,1,95.65,82.76Z"/><path class="cls-32" d="M99.3,81.39s.06,0,.09,0a3.45,3.45,0,0,1,.26-.28.1.1,0,0,1,.07,0l-.22.28c-.07.09-.15.17-.22.25l-.63.81-1.06,1.31-.07.08a.37.37,0,0,1-.19-.11l.09-.12,1.21-1.34c.16-.18.31-.38.48-.56l.16-.14Z"/><path class="cls-32" d="M95.38,85.7l.67-.75.29-.3.49-.54.33,0-.47.42-.22.21L96,85.2l-.55.5Z"/><path class="cls-32" d="M99.32,85.26l-.26-.15a2.6,2.6,0,0,0-.36-.21c-.09,0-.14-.12-.22-.15h0l0,0-.65-.42-.31-.2.1-.1.24.16,1,.72.11.06.31.24a.6.6,0,0,1,.08.08Z"/><path class="cls-18" d="M90.19,84.68l.11.07C90.2,84.76,90.2,84.76,90.19,84.68Z"/><path class="cls-18" d="M90.08,84.61l.11.07C90.09,84.69,90.09,84.69,90.08,84.61Z"/><path class="cls-18" d="M90,84.58l0,0Z"/><path class="cls-18" d="M98.43,84.72l0,0Z"/><path class="cls-34" d="M111.77,45.21l-.23.27-1.57,2-.84,1-.14.18s0,0,0-.08c0-.39,0-.78,0-1.17l-.06-1.71,0-.33c0-.2,0-.4,0-.6s0-.43,0-.64l-.06-1.37v-.07c0-.49,0-1,0-1.46,0-.28,0-.57,0-.85v-.15l.12,0,1.28,0,2-.08,1.8-.07,1.92-.07.31,0a1.05,1.05,0,0,1-.08.13l-2.58,3.2-1.5,1.85Z"/><path class="cls-34" d="M115.8,43.82c0,.32,0,.64-.08,1l-.06.68c0,.17,0,.34,0,.51s0,.45,0,.67,0,.32,0,.48l0,.11-1,.23-2.6.65s0,0-.08,0l-.14,0h0l-.14,0h0l-.13,0h0l-.14,0h0l-.14,0h0l-.14,0h0l-.14,0h0a.14.14,0,0,0-.14,0h0l-.38.08-1,.26-.17,0c.08-.09.13-.17.19-.24l2-2.48.22-.32a1.14,1.14,0,0,0,.21-.28c.07,0,.09-.06.13-.11l.76-.94,1.79-2.25L116,40.26a.38.38,0,0,1,.11-.11.65.65,0,0,1,0,.24c0,.2,0,.41,0,.61l-.09,1.14-.09,1.08C115.82,43.42,115.81,43.62,115.8,43.82Z"/><path class="cls-34" d="M117.57,42.25l.32.55c.46.78.93,1.56,1.4,2.34a.36.36,0,0,0,.07.1.87.87,0,0,1,0,.1l-.87,1.14-.67.16-.68.17-.67.17a6.37,6.37,0,0,1-.69.16,1.37,1.37,0,0,0,0-.19c0-.26,0-.52,0-.78l.09-1.15c0-.25,0-.5,0-.76l0-.44c0-.18,0-.36,0-.55l.06-.72c0-.18,0-.35,0-.53s0-.47,0-.71l.06-.72c0-.14,0-.28,0-.42s.07,0,.08,0l1,1.61C117.39,42,117.48,42.11,117.57,42.25Z"/><path class="cls-30" d="M120.7,42.18c0,.1,0,.2-.07.3-.08.46-.17.92-.24,1.39a.78.78,0,0,1-.25.51,3.85,3.85,0,0,0-.27.3l0,0c-.13-.17-.25-.35-.38-.53-.45-.63-.9-1.27-1.36-1.9l-.06-.09,0,0,0,0-.37-.54-1-1.39a.56.56,0,0,1,0-.08s0,0,.06,0l4.11,1.8Z"/><path class="cls-32" d="M121.62,42.29l.11.06c-.06.12-1,1.33-1.13,1.46v-.09l.27-1.48v0l0-.2.21.08Z"/><path class="cls-32" d="M117.89,42.27c.09.13.17.27.26.41s.3.41.44.62l1,1.45.09.14c0,.1-.14.17-.2.27l-.07-.09-1.62-2.77-.1-.17,0-.12C117.77,42.09,117.81,42.2,117.89,42.27Z"/><path class="cls-32" d="M120.92,41.77l.11-.66.59,1-.09,0-.5-.23Z"/><path class="cls-21" d="M121.77,41.94l.06,0V42Z"/><path class="cls-25" d="M118,42.1l0,0Z"/><path class="cls-34" d="M103,83.34c0-.19-.07-.37-.11-.56-.17-.78-.35-1.56-.52-2.33-.13-.57-.26-1.13-.38-1.7,0,0,0-.07,0-.11a.35.35,0,0,1,.18,0l2.89.56,2.78.56,2.11.4.56.11.11,0-.3.37-.92,1.11,0,.07-.12.14q-1,1.26-2.1,2.55c-.12.14-.23.29-.35.44l-.41.49-.84,1-.87,1.08-.53.64a.69.69,0,0,1,0-.1c-.23-1-.45-2-.67-3-.13-.54-.25-1.08-.37-1.63A.65.65,0,0,0,103,83.34Z"/><path class="cls-34" d="M111.74,81.77l.44.65,1.58,2.31a1.34,1.34,0,0,1,.11.14.17.17,0,0,1-.13.07l-1.48.52-2.93,1L105,88l-.45.16-.15,0,.08-.12.79-1,.3-.41c.08-.09.17-.18.25-.28l.16-.2.22-.27a.69.69,0,0,1,.11-.13l0,0s0,0,0,0h0l.13-.16h0v0l.12-.15,0,0h0l.1-.12,0,0h0l.06-.06,2.25-2.74c.07-.08.12-.16.18-.24l.46-.54,1-1.25a.7.7,0,0,1,.08.1l.81,1.16Z"/><path class="cls-16" d="M109.28,82.17c-.06.08-.11.16-.18.24l-2.25,2.74-.06.06c0-.07,0-.14,0-.21s.23-.3.35-.44q1.05-1.29,2.1-2.55l.12-.14a.33.33,0,0,1-.07.21Z"/><path class="cls-27" d="M95.38,85.7h.06a.24.24,0,0,1-.16.11Z"/><path class="cls-32" d="M99.32,85.26l.13,0a.13.13,0,0,1-.13,0Z"/><path class="cls-16" d="M99,84.84l.06,0Z"/><path class="cls-16" d="M96.43,85l0,0Z"/><path class="cls-16" d="M96.39,85.08h0Z"/><path class="cls-16" d="M106.78,85.22l0,0Z"/><path class="cls-16" d="M106.66,85.37h0Z"/><path class="cls-16" d="M106.64,85.4l0,0Z"/><path class="cls-16" d="M106.49,85.58v0h0Z"/><polygon class="cls-16" points="106.34 85.76 106.34 85.77 106.33 85.78 106.34 85.76"/><path class="cls-16" d="M106.32,85.79l0,0Z"/><path class="cls-34" d="M107.82,70.92c.06-.14.12-.29.17-.44.28-.79.55-1.58.82-2.37a.52.52,0,0,0,0-.24s0,0,0-.06,0-.1.07-.16c.33-1,.66-1.92,1-2.88,0-.06,0-.12.07-.19l.21.18,1.62,1.53.44.4s0,0,0,0c.27.24.53.49.79.74l.62.58,1.92,1.8.08.1-.42.24-.59.31c-.12.07-.25.13-.38.19l-2.21,1.17-3.81,2-.49.27c-.08,0-.17.08-.25.12l-1,.52-.1,0s0-.07,0-.1.11-.34.17-.5a.37.37,0,0,0,0-.14s0-.08,0-.11,0-.07,0-.12a.45.45,0,0,1,0-.11l.19-.55c.06-.16.11-.32.17-.47a1.33,1.33,0,0,0,0-.19.56.56,0,0,1,.07-.18,1.06,1.06,0,0,0,.06-.19,1.85,1.85,0,0,0,.12-.33,1.76,1.76,0,0,0,.09-.2c0-.08,0-.15.07-.22s0-.15.08-.22a.15.15,0,0,0,0-.07h0l0-.08h0v0Z"/><path class="cls-34" d="M119.51,56.91l.39-.34,1.49-1.37.39-.35.06,0s0,.07,0,.1c0,.38,0,.76,0,1.13v2.39c0,.24,0,.48,0,.72a.43.43,0,0,0,0,.11c0,.32,0,.65,0,1,0,.66,0,1.32,0,2,0,1.09,0,2.18,0,3.27v.45l-.08-.07-2.68-3.22-.43-.51s-.06-.06-.08-.09-.28-.35-.42-.51l-1.49-1.8a1.58,1.58,0,0,0-.12-.15l.27-.25,1-1L119.46,57Z"/><path class="cls-34" d="M121.67,68.33c0,.25,0,.5-.08.75l-.09.83-.09.81-.09.9c0,.26-.06.53-.08.79s-.07.59-.1.88a2.44,2.44,0,0,0,0,.27c0,.18,0,.37-.07.56s-.07.59-.1.89c0,.15,0,.3,0,.44a.42.42,0,0,0,0,.06c-.12-.11-.21-.23-.31-.34s-.21-.23-.31-.34l-.24-.28-1.68-1.93c-.39-.44-.78-.89-1.18-1.33-.16-.19-.33-.37-.5-.55,0,0,0,0,0,0a.8.8,0,0,0-.2-.21.74.74,0,0,0-.15-.19,1.22,1.22,0,0,1-.25-.31l0,0c.2-.11.38-.26.57-.37l.54-.34c.25-.16.5-.32.76-.47l.63-.4a2,2,0,0,1,.31-.19c.08,0,.15-.11.24-.15l.23-.14c.07-.06.16-.09.24-.15s.28-.18.42-.27l.31-.18a3.7,3.7,0,0,1,.33-.21l.45-.28.24-.14.49-.29c0,.15,0,.28,0,.4,0,.33-.07.65-.1,1Z"/><path class="cls-34" d="M113.12,62.17l.57-.42,2.47-1.84.17-.12a.07.07,0,0,1,0,.1l-.06,1.19h0c0,.31,0,.62,0,.92v.13c0,.21,0,.42,0,.64l-.06,1v.07c0,.37,0,.75,0,1.12a.76.76,0,0,1,0,.21l-.52-.07L114.48,65l-1-.16-1-.16-1-.15a.2.2,0,0,1-.14-.06l-.46-.51a1.22,1.22,0,0,1,.33-.27c0-.07.11-.08.16-.14s.12-.08.18-.13a.73.73,0,0,1,.18-.14c.08,0,.1-.11.19-.12s.07-.08.11-.1S112,63,112,63a1,1,0,0,0,.13-.09c.06,0,.11-.12.18-.14s.09-.13.18-.12.18-.09.24-.18h0l0,0h0l0,0h0l.14-.1h0l.1-.08Z"/><path class="cls-34" d="M116.43,62.14l0-.52c0-.39.05-.79.07-1.18,0-.19,0-.38,0-.57,0,0,.07,0,.09,0l.72.88,1.12,1.34.08.09a0,0,0,0,0,0,0l.1.12c.12.17.26.33.39.49s.47.56.7.84l1.32,1.59.54.65a.62.62,0,0,1,.08.12.75.75,0,0,1-.15,0L121,66l-1-.17-1-.15-1-.17-1.28-.19-.35-.06v-.29c0-.1,0-.19,0-.29s0-.09,0-.14c0-.36,0-.73,0-1.1l.06-1C116.43,62.29,116.42,62.21,116.43,62.14Z"/><path class="cls-34" d="M116.21,66.58c0-.3,0-.61.05-.92a.74.74,0,0,1,0-.25l5.36.83,0,0-.18.14,0,0h0l-.08,0-2.09,1.3-2.25,1.4-.74.47-.27.15c0-.17,0-.33,0-.49s0-.43,0-.65,0-.75,0-1.12c0-.05,0-.09,0-.14C116.18,67.13,116.19,66.86,116.21,66.58Z"/><path class="cls-34" d="M112.91,66.4l-.39-.46-1-1.12s0,0-.06-.08l4.55.67v.15c0,.13,0,.27,0,.4l0,.43v.19l0,.52c0,.25,0,.49,0,.74,0,.42,0,.83-.07,1.24,0,0,0,0,0,.07s0,.29,0,.43a.92.92,0,0,1,0,.09l-.16-.17-1.12-1.29-1.17-1.33Z"/><path class="cls-34" d="M110,62.14l0-.69a.81.81,0,0,1,0-.15l0,0h0l5.87-1.48h.1l-.06.06-2.63,2-.12.11-.55.41c-.61.45-1.21.91-1.81,1.37l-.09.06-.07-.06-.51-.59A.3.3,0,0,1,110,63c0-.25,0-.5,0-.74A.29.29,0,0,0,110,62.14Z"/><path class="cls-28" d="M112.91,66.4l.43.48,1.17,1.33,1.12,1.29.16.17a.92.92,0,0,0,0-.09c0-.14,0-.29,0-.43s0-.05,0-.07c0-.41.06-.82.07-1.24,0-.25,0-.49,0-.74l0-.52h.23c0,.28,0,.55,0,.82,0,0,0,.09,0,.14,0,.37,0,.75,0,1.12s0,.44,0,.65,0,.32,0,.49l.27-.15.74-.47,2.25-1.4,2.09-1.3.08,0a.16.16,0,0,1,0,.09c-.06,0-.05.09-.06.15l-.24.14-.45.28a3.7,3.7,0,0,0-.33.21l-.31.18c-.14.09-.29.17-.42.27s-.17.09-.24.15l-.23.14c-.09,0-.16.11-.24.15a2,2,0,0,0-.31.19l-.63.4c-.26.15-.51.31-.76.47l-.54.34c-.19.11-.37.26-.57.37l0,0a1.22,1.22,0,0,0,.25.31.74.74,0,0,1,.15.19.21.21,0,0,0,.07.21h.13s0,0,0,0,0,.12-.1.15l-.28-.3a2.2,2.2,0,0,0-.3-.32,1.21,1.21,0,0,0,0,.18c0,.17,0,.34,0,.51h-.16a3,3,0,0,1,0-.52s0,0,0,0a0,0,0,0,1,0,0l0,0a1.09,1.09,0,0,0-.08.15c-.07.12-.13.24-.19.36a.14.14,0,0,1-.12-.14l.27-.58-.15.07-.83.43a.39.39,0,0,1,0-.21l.59-.31.42-.24-.08-.1L113.73,68l-.62-.58c-.26-.25-.52-.5-.79-.74,0,0,0,0,0,0s0-.1,0-.13a.19.19,0,0,1-.06-.2l.13.1,1.2,1.11.5.47s0,0,.1,0,0-.07,0-.1l-.92-1-.26-.32Zm1.58,2a1.11,1.11,0,0,0-.34-.35C114.18,68.18,114.25,68.25,114.49,68.44Z"/><path class="cls-32" d="M112.91,66.62l.26.32.92,1s0,.06,0,.1-.07,0-.1,0l-.5-.47-1.2-1.11-.13-.1-.08-.09-1.75-1.62-.07-.08c.3,0,.58.07.86.1l.44.49,1,1.18Z"/><path class="cls-33" d="M109.11,62.06l-.34-.41-.07-.09c.35-.11.69-.19,1-.28l.05.86v.66a.24.24,0,0,1-.08-.06c-.15-.16-.3-.33-.44-.5Z"/><path class="cls-32" d="M109,62.21c.06,0,.08.06.12.07l.3.35.46.52,0,.79c-.19-.3-.32-.6-.48-.87S109.13,62.49,109,62.21Z"/><path class="cls-32" d="M110.07,63.41l.46.51a.7.7,0,0,1-.21.14,1.91,1.91,0,0,1-.21.14A3.52,3.52,0,0,1,110.07,63.41Z"/><path class="cls-32" d="M111,64.41a5.08,5.08,0,0,1-.67-.07s0-.06.06-.07l.3-.21A2.1,2.1,0,0,1,111,64.41Z"/><path class="cls-14" d="M118.68,62.36l-.1-.12s.08,0,.11,0,0,0,0,.06Z"/><path class="cls-14" d="M113,62.25l-.14.1C112.9,62.25,112.9,62.25,113,62.25Z"/><path class="cls-14" d="M113.12,62.17l-.1.08C113,62.18,113,62.18,113.12,62.17Z"/><path class="cls-28" d="M121.48,66.44l0,0Z"/><path class="cls-14" d="M112.88,62.35l0,0Z"/><path class="cls-14" d="M112.83,62.39l0,0Z"/><polygon class="cls-14" points="112.79 62.42 112.78 62.43 112.77 62.43 112.79 62.42"/><path class="cls-34" d="M102.17,78.34l.7-.54,3.32-2.56.08-.06c.07,0,.09.06.13.1l.95,1.1,1.21,1.41c.12.14.24.27.35.41l.13.12.12.15s0,0,0,0h0l0,0,.47.55.74.87.09.11-.26,0-2.65-.52-2.17-.42-2.14-.41-1-.19-.17,0,0-.07Z"/><path class="cls-34" d="M115.52,70.92c.06-.12.12-.24.19-.36a1.09,1.09,0,0,1,.08-.15l0,0a3,3,0,0,0,0,.52.15.15,0,0,0,0,.07l0,1.58c0,.61,0,1.22,0,1.84a1.48,1.48,0,0,0,0,.21c0,.5,0,1,0,1.5,0,.33,0,.65,0,1s0,.55,0,.84l-.13.06-.76.36-.29.11a.18.18,0,0,1-.12,0l-.3-.14-.58-.24-.62-.29-.62-.27a1.36,1.36,0,0,1,.11-.28c.13-.33.3-.65.46-1l.42-.82c.07-.13.12-.26.19-.38h0l.21-.44a.33.33,0,0,0,.06-.1c.53-1.07,1.06-2.14,1.58-3.21C115.38,71.23,115.45,71.08,115.52,70.92Z"/><path class="cls-34" d="M114.89,81.73l-.24.76c-.2.69-.4,1.38-.61,2.08l0,.12-.09-.1-1.24-1.79-.76-1.1-.06-.08-.15-.2,0,0a0,0,0,0,0,0,0l0,0-.39-.58-.28-.42.1,0,3.17-.65,1.28-.27h0a.89.89,0,0,1-.07.28c-.18.65-.38,1.3-.57,2Z"/><path class="cls-35" d="M117.6,80.09l-.45.57-2.79,3.66,0,.05a.15.15,0,0,1,0-.13l.32-1,.39-1.3a.94.94,0,0,0,0-.16c.14-.44.28-.88.41-1.32,0-.15.1-.3.14-.45s0-.22.08-.33a1.66,1.66,0,0,1,.13-.35.23.23,0,0,1,.07-.07.62.62,0,0,1,.17-.11c.06,0,.1-.09.18-.11s.1-.09.16-.12.14-.1.22-.13,0,0,.06-.07a1,1,0,0,0,.28-.14l3.29-2.17a1,1,0,0,1,.18-.1l0,0-.36.5-2,2.59-.42.54A1.3,1.3,0,0,0,117.6,80.09Z"/><path class="cls-35" d="M109.14,78.19l-.41-.49-1.85-2.16c-.06-.06-.11-.13-.16-.19l0,0L112,77.64c0,.1-.08.18-.12.26s-.09.21-.14.31c-.13.25-.26.5-.38.75l-.48,1-.07.11c-.2-.24-.4-.47-.61-.7a9,9,0,0,0-.64-.73c0-.1-.13-.15-.2-.23Z"/><path class="cls-31" d="M111.81,78.35l.24-.48.08-.15.13,0,1.17.5.08,0,.53.24.12.06v0h0L111.06,80s0-.06,0-.08c.09-.19.18-.38.26-.58s.23-.48.35-.72A1.59,1.59,0,0,0,111.81,78.35Z"/><path class="cls-33" d="M119.77,76.46l-.87.58-1.67,1.09-.12.09-.09.06s0,0,0,0l0,0h0c-.21.11-.39.26-.59.38l-.41.27-.1,0v-.41l0-.17c0-.11,0-.22,0-.33l.11-.06,3.66-1.58.1,0Z"/><path class="cls-32" d="M114.44,78.72l1,.44-.17,0-2.88.6-.68.14a.59.59,0,0,1,.14-.07l.86-.38c.28-.13.56-.27.85-.39Z"/><path class="cls-32" d="M114.76,78.57a.48.48,0,0,0,.23-.07l.48-.21.17-.06V79a.09.09,0,0,1-.12,0c-.27-.12-.54-.22-.82-.32l-.07,0Z"/><path class="cls-33" d="M101.06,79.13l.1-.08a.12.12,0,0,1-.07.11Z"/><path class="cls-24" d="M102.09,78.39l0,.07C102.06,78.45,102.05,78.45,102.09,78.39Z"/><path class="cls-24" d="M109.18,78.49s0,0,0,0Z"/><path class="cls-24" d="M109.21,78.53l0,0Z"/><path class="cls-16" d="M99.26,81.2l0,0Z"/><path class="cls-16" d="M99.23,81.24l0,0Z"/><path class="cls-16" d="M111.63,81.32l0,0Z"/><path class="cls-16" d="M111.67,81.37l0,0Z"/><path class="cls-34" d="M110,55l.46-.36,2.15-1.75,2-1.61.62-.5.1-.07a.37.37,0,0,1,0,.14c0,.24.05.48.08.72s.09.68.13,1l.06.51c0,.09,0,.18,0,.27l.09.75.09.81.09.72.09.81a1.85,1.85,0,0,0,.07.41c0,.2,0,.41,0,.6l.09.76c0,.27.07.54.1.81,0,0,0,.07,0,.11s0,.14,0,.22l-.09,0-6.56-4.06.16-.16,0,0h0l0,0Z"/><path class="cls-34" d="M119.59,56.62l-.07.07,0,0s0,0,0,0l-.51.45c-.77.7-1.54,1.4-2.3,2.11l-.07,0s0,0,0-.07c-.05-.37-.09-.73-.13-1.1s-.08-.67-.13-1c0-.11,0-.21,0-.32,0-.4-.09-.8-.14-1.21s-.09-.65-.13-1l-.15-1.29c0-.09,0-.19,0-.29l-.06-.55c0-.27-.06-.54-.1-.81l-.09-.73a1.42,1.42,0,0,1,0-.29.63.63,0,0,1,.2.1l2.66,1.64.14.07.62.4,2.64,1.63,0,0a.35.35,0,0,1-.13.14c-.16.16-.34.31-.5.46a7.81,7.81,0,0,0-.59.56c-.25.18-.46.41-.7.61l-.09.1Z"/><path class="cls-34" d="M109.5,54.88a2.17,2.17,0,0,1,0-.26c0-.14,0-.28,0-.42,0-.36-.07-.72-.1-1.08s-.09-.87-.13-1.31l-.09-1-.09-.92c0-.18,0-.35-.05-.53s0-.19,0-.29a.29.29,0,0,1,.16,0l2.57.61,3.35.8h.09c0,.07-.06.09-.1.12l-.94.76-2,1.64-1.89,1.51-.13.12-.06,0h0l-.41.31Z"/><path class="cls-34" d="M109.93,61c0-.17,0-.32,0-.47s0-.55,0-.82l-.06-.9c0-.22,0-.44,0-.66s0-.57,0-.85l-.09-1.45a2.64,2.64,0,0,1,0-.4h.06l6.51,4-.11,0-2.91.71-3,.74Z"/><path class="cls-33" d="M109.41,56.26c0,.17,0,.32,0,.46s0,.45,0,.67l.06.89c0,.19,0,.38,0,.56s0,.55.05.82.06.81.09,1.22v.21c-.18.06-.36.09-.54.14s-.36.1-.54.13l0,0v-.08c.24-1.61.49-3.21.73-4.81A.73.73,0,0,1,109.41,56.26Z"/><path class="cls-26" d="M115.77,53.1c0,.1,0,.2,0,.29l.15,1.29c0,.33.09.65.13,1s.09.81.14,1.21H116a1.85,1.85,0,0,1-.07-.41l-.09-.81-.09-.72-.09-.81-.09-.75c0-.09,0-.18,0-.27Z"/><path class="cls-21" d="M109.88,55.06l0,0Z"/><path class="cls-21" d="M109.84,55.09l0,0Z"/><path class="cls-34" d="M121.27,51.9a.48.48,0,0,0,0,.12c.08.32.16.65.23,1l.3,1.28a.2.2,0,0,0,0,0l-.09,0-3-1.84-.15-.08,0,0-.06,0-.06,0-.05,0h0l-.07,0,0,0-.07,0-.06,0,0,0h0L118,52l-.23-.14-.06,0-.26-.15-.31-.19a1.49,1.49,0,0,1-.29-.2,1.64,1.64,0,0,1-.39-.22,3.84,3.84,0,0,1-.54-.35c-.13,0-.18-.14-.3-.2l.11-.06,2.86-1.23.56-.24.06,0,.56-.23.57-.25.11,0c.07.19.09.4.15.58v.06c.18.76.35,1.53.53,2.3C121.17,51.54,121.22,51.72,121.27,51.9Z"/><path class="cls-30" d="M109.68,48.8h.1l2.54-.62,2.63-.64.47-.11h.08s0,0,0,.06,0,.25,0,.37,0,0,0,.07c0,.31,0,.62,0,.92,0,0,0,0,0,.05,0,.24,0,.47,0,.71l-.06.71s0,0,0,.06h-.06l-5.92-1.44c.11-.08.23-.06.33-.11l0,0Z"/><path class="cls-31" d="M119.38,48.69h0l-.15.06h0l-.68.29L116,50.13l-.06,0s0,0,0-.07l.32-.3a1.7,1.7,0,0,0,.3-.3.25.25,0,0,1,.13-.12s.07-.06.1-.09a2.86,2.86,0,0,1,.41-.36l.23-.25,0,0a4.67,4.67,0,0,0,.68-.57l1.7-1.57.12-.09c.06.21.09.41.14.61s.09.4.13.61a4.21,4.21,0,0,1,.11.6.5.5,0,0,1-.21.12l-.07,0-.18.08-.07,0h0l-.15.07-.1,0-.15.07h0Z"/><path class="cls-31" d="M115.57,48.87c0-.13,0-.26,0-.39l.06-.67c0-.09,0-.17,0-.26a1.65,1.65,0,0,1,0-.21c.27-.09.55-.13.82-.21l.84-.2.86-.21-.18.24-1,1.31,0,.07,0,0h0l0,0,0,0-.25.32h0c-.14.17-.28.33-.41.5l-.67.84,0,0h0a1.85,1.85,0,0,1,0-.47C115.54,49.41,115.56,49.14,115.57,48.87Z"/><path class="cls-32" d="M116.72,48.91l.27-.33c.48-.56.92-1.16,1.39-1.73l.08-.1a.31.31,0,0,1,.2-.13l1-.22h.07l-.18.17-.73.67-1.22,1.13,0,.05-.29.27-.13.13a1.21,1.21,0,0,0-.14.1l-.52.48-.12.11a.3.3,0,0,1,.09-.18Z"/><path class="cls-22" d="M117.08,48.82l.13-.13a.3.3,0,0,0,.16,0h.1l-.23.25a.11.11,0,0,1-.11,0S117.1,48.83,117.08,48.82Z"/><path class="cls-26" d="M117.71,51.82l.06,0Z"/><path class="cls-26" d="M118,52l.06,0A.05.05,0,0,1,118,52Z"/><path class="cls-14" d="M110,54.74l.06,0A.05.05,0,0,1,110,54.74Z"/><path class="cls-26" d="M118.46,52.29l.06,0Z"/><path class="cls-26" d="M118.17,52.11l.07,0Z"/><path class="cls-26" d="M118.28,52.18l.07,0S118.29,52.21,118.28,52.18Z"/><path class="cls-26" d="M118.35,52.22l.05,0Z"/><path class="cls-26" d="M118.07,52l0,0Z"/><path class="cls-31" d="M115.51,50.15l0,0,0,0Z"/><path class="cls-22" d="M109.68,48.8l0,0Z"/><path class="cls-33" d="M121.8,50.72v.67c0,.65,0,1.29,0,1.94a.71.71,0,0,1,0,.14,1.7,1.7,0,0,1-.1-.37l-.27-1.21,0,0v0c-.07-.3-.13-.6-.2-.9-.11-.52-.22-1-.34-1.54,0-.13-.06-.26-.1-.39l-.09-.47a1.52,1.52,0,0,1,0-.21c.19-.09,1-.4,1.1-.43a.49.49,0,0,1,0,.12c0,.63,0,1.25,0,1.88C121.78,50.15,121.79,50.44,121.8,50.72Z"/><path class="cls-33" d="M120.54,45.39c0-.07.07-.13.1-.2l1-2.27s0-.07.07-.08v2.35c0,.07,0,.13,0,.19s0,.12,0,.18v1.83l0,0c-.42-.59-.83-1.19-1.25-1.79Z"/><path class="cls-33" d="M120.2,46.45l1.43,1.21c-.18.1-.35.16-.52.24l-.52.22s-.08,0-.06-.09,0-.12,0-.18l-.3-1.27A1.23,1.23,0,0,1,120.2,46.45Z"/><path class="cls-21" d="M120.77,49c0,.13.07.26.1.39.12.51.23,1,.34,1.54.07.3.13.6.2.9v0a.18.18,0,0,0-.14,0c0-.18-.1-.36-.14-.53-.18-.77-.35-1.54-.53-2.3V49A.25.25,0,0,0,120.77,49Z"/><path class="cls-32" d="M120.3,45.32l.15-1a.46.46,0,0,1,.07-.14l.34-.41.54-.66a.86.86,0,0,1-.07.21l-1,1.95,0,.08Z"/><path class="cls-32" d="M118.77,46.42c.08-.11.14-.18.19-.26s.31-.42.47-.63c0,0,0,0,.07,0l.37.63,0,0Z"/><path class="cls-32" d="M121.21,47c-.34-.27-.67-.55-1-.82a1.49,1.49,0,0,1,.17-.44l.88,1.23Z"/><path class="cls-32" d="M119.62,45.35l.21-.27c.12.09.18.22.28.3a2.93,2.93,0,0,1-.1.53h0Z"/><path class="cls-21" d="M117.47,48.66h-.1a.3.3,0,0,1-.16,0l.29-.27v.21Z"/><path class="cls-21" d="M116.64,48.76l.25-.32v.13l-.08,0s0,.12-.07.15Z"/><path class="cls-21" d="M119.45,48.66l.15-.07C119.56,48.7,119.53,48.71,119.45,48.66Z"/><path class="cls-21" d="M119.2,48.76l.15-.06C119.31,48.81,119.28,48.82,119.2,48.76Z"/><path class="cls-21" d="M119.7,48.55l.15-.07s0,.07-.06.07Z"/><path class="cls-21" d="M111.6,48.2l.14,0C111.7,48.22,111.65,48.18,111.6,48.2Z"/><path class="cls-21" d="M111.74,48.16l.14,0S111.79,48.15,111.74,48.16Z"/><path class="cls-21" d="M110.74,48.41a.14.14,0,0,1,.14,0S110.79,48.4,110.74,48.41Z"/><path class="cls-21" d="M110.89,48.37l.14,0C111,48.4,110.93,48.36,110.89,48.37Z"/><path class="cls-21" d="M111,48.34l.14,0C111.13,48.36,111.08,48.33,111,48.34Z"/><path class="cls-21" d="M111.17,48.3l.14,0C111.28,48.33,111.22,48.29,111.17,48.3Z"/><path class="cls-21" d="M111.46,48.23l.13,0C111.56,48.26,111.5,48.22,111.46,48.23Z"/><path class="cls-21" d="M111.31,48.27l.14,0C111.42,48.29,111.36,48.26,111.31,48.27Z"/><path class="cls-21" d="M120.1,48.37l.07,0Z"/><path class="cls-21" d="M119.85,48.48l.07,0Z"/><path class="cls-21" d="M119.38,48.69l0,0Z"/><path class="cls-21" d="M116.91,48.4l0,0Z"/><path class="cls-21" d="M116.94,48.37l0,0Z"/><path class="cls-34" d="M116,71c0-.17,0-.34,0-.51a1.21,1.21,0,0,1,0-.18,2.2,2.2,0,0,1,.3.32l.28.3.39.45,1.89,2.13c.31.36.63.72,1,1.07l.39.43.24.29.4.45-.11.05L117.5,77.2l-1.61.71,0,0,0-1.35c0-.44,0-.88,0-1.31,0-.13,0-.25,0-.38v-.19c0-.07,0-.13,0-.19,0-.41,0-.82,0-1.23s0-1,0-1.47Z"/><path class="cls-27" d="M120.2,75l-.39-.43c-.32-.35-.64-.71-1-1.07L117,71.34l-.39-.45c.09,0,.09,0,.1-.15.17.18.34.36.5.55.4.44.79.89,1.18,1.33L120,74.55l.24.28A.13.13,0,0,0,120.2,75Z"/><path class="cls-27" d="M116,71v.81c0,.49,0,1,0,1.47s0,.82,0,1.23c0,.06,0,.12,0,.19h-.16a1.48,1.48,0,0,1,0-.21c0-.62,0-1.23,0-1.84l0-1.58a.15.15,0,0,1,0-.07Z"/><path class="cls-32" d="M119.77,76.46l0,0a.18.18,0,0,1,.16,0Z"/><path class="cls-20" d="M117,78.28l.09-.06s0,0,0,.06S117.05,78.28,117,78.28Z"/><path class="cls-35" d="M120.43,76.27s0-.06.09,0l-.06.08Z"/><path class="cls-27" d="M115.87,77.89l0,0S115.87,77.9,115.87,77.89Z"/><path class="cls-20" d="M117,78.32l0,0Z"/><path class="cls-34" d="M114.69,70.7l.83-.43.15-.07-.27.58-.07.12c-.53,1.08-1.07,2.15-1.6,3.22-.07.15-.14.31-.22.46l-.33.64-.53,1.08-.52,1a.41.41,0,0,0,0,.09.29.29,0,0,1-.16,0l-1.8-.79-3.42-1.5-.15-.06.11-.08,2.49-1.32,4.27-2.27,1.2-.64,0,0Z"/><path class="cls-27" d="M113.51,74.58c.08-.15.15-.31.22-.46.53-1.07,1.07-2.14,1.6-3.22l.07-.12a.14.14,0,0,0,.12.14c-.07.16-.14.31-.22.46-.52,1.07-1,2.14-1.58,3.21a.33.33,0,0,1-.06.1C113.6,74.68,113.52,74.68,113.51,74.58Z"/><polygon class="cls-27" points="113.45 75.13 113.46 75.14 113.44 75.14 113.45 75.13"/><path class="cls-32" d="M120,44.88a3.08,3.08,0,0,1,.26-.33c0,.13,0,.22-.06.31a1.87,1.87,0,0,1,0,.25c-.05,0-.07,0-.08,0A2.07,2.07,0,0,1,120,44.88Z"/><path class="cls-14" d="M119.59,56.62l.19-.17C119.76,56.59,119.73,56.61,119.59,56.62Z"/><path class="cls-14" d="M119.47,56.73l0,0S119.5,56.73,119.47,56.73Z"/><path class="cls-28" d="M107.76,71.11h0S107.76,71.12,107.76,71.11Z"/><path class="cls-28" d="M107.8,71v0h0A0,0,0,0,1,107.8,71Z"/><path class="cls-28" d="M114.66,70.71l0,0Z"/><path class="cls-27" d="M116.67,70.71h-.13a.21.21,0,0,1-.07-.21A.8.8,0,0,1,116.67,70.71Z"/><path class="cls-32" d="M114.49,68.44c-.24-.19-.31-.26-.34-.35A1.11,1.11,0,0,1,114.49,68.44Z"/><path class="cls-27" d="M115.82,70.44l0,0,0,0a0,0,0,0,0,0,0S115.82,70.43,115.82,70.44Z"/></g></g></svg>