<svg xmlns="http://www.w3.org/2000/svg" viewBox="0 0 364.79 364.79"><defs><style>.cls-1{fill:#fff;}</style></defs><title>Asset 1</title><g id="Layer_2" data-name="Layer 2"><g id="Layer_1-2" data-name="Layer 1"><path class="cls-1" d="M365.14,219.68V365.45H.35V.66H365.14V199.77c-.22-1-.46-2.05-.66-3.08-1.68-8.56-2.41-17.44-5.23-25.61-5.81-16.85-16.26-30.49-32.38-38.89-20.53-10.7-42.33-12.4-64.57-7.14-24,5.67-41.4,20-50.7,43-9,22.21-9.15,45.25-4.51,68.45,3.89,19.48,14.32,34.42,31.43,44.79,18.81,11.4,39.11,14.81,60.72,12.4,25.31-2.82,44.9-14.64,58.09-36.57,2.79-4.63,4.94-9.62,5.29-15.29a9.76,9.76,0,0,0-1.57-.26c-13.15,0-26.3-.08-39.45.08-1.19,0-2.56,1.25-3.5,2.24-3,3.15-5.27,7.29-8.79,9.56-14.88,9.59-30.35,8.72-45.36.37-11-6.13-18.54-22.64-16.35-34.13ZM152.66,174.06c.86-.53,1.92-1.22,3-1.85,8.93-5,15.88-11.88,19.77-21.54,4.1-10.17,4.66-20.75,3.38-31.45-1.88-15.59-8.84-28.34-22-37.36C144.44,73.32,130.27,70,115.54,69.79c-37.45-.41-74.9-.23-112.34-.27a11.38,11.38,0,0,0-1.91.3V295.91H5.72c31.16,0,62.33.11,93.5-.08a265.81,265.81,0,0,0,27.64-1.59c12.77-1.4,24.82-5.26,34.88-13.67,20.09-16.78,27.45-38.54,24.06-64.09-1.74-13.08-7.1-24.62-17.82-32.86C163.27,180,157.87,177.27,152.66,174.06Zm86.17-95v22.26h90.78V79.06Z" transform="translate(-0.35 -0.66)"/><path d="M365.14,219.68H247.6c-2.19,11.49,5.33,28,16.35,34.13,15,8.35,30.48,9.22,45.36-.37,3.52-2.27,5.8-6.41,8.79-9.56.94-1,2.31-2.23,3.5-2.24,13.15-.16,26.3-.1,39.45-.08a9.76,9.76,0,0,1,1.57.26c-.35,5.67-2.5,10.66-5.29,15.29-13.19,21.93-32.78,33.75-58.09,36.57-21.61,2.41-41.91-1-60.72-12.4C221.41,270.91,211,256,207.09,236.49c-4.64-23.2-4.47-46.24,4.51-68.45,9.3-23,26.67-37.32,50.7-43,22.24-5.26,44-3.56,64.57,7.14,16.12,8.4,26.57,22,32.38,38.89,2.82,8.17,3.55,17,5.23,25.61.2,1,.44,2.05.66,3.08Zm-44.41-28.1c0-20-15.14-34.26-36.13-34.29-22.86,0-34.05,15.17-36.15,34.29Z" transform="translate(-0.35 -0.66)"/><path d="M152.66,174.06c5.21,3.21,10.61,5.94,15.32,9.56,10.72,8.24,16.08,19.78,17.82,32.86,3.39,25.55-4,47.31-24.06,64.09-10.06,8.41-22.11,12.27-34.88,13.67a265.81,265.81,0,0,1-27.64,1.59c-31.17.19-62.34.08-93.5.08H1.29V69.82a11.38,11.38,0,0,1,1.91-.3c37.44,0,74.89-.14,112.34.27,14.73.16,28.9,3.53,41.34,12.07,13.12,9,20.08,21.77,22,37.36,1.28,10.7.72,21.28-3.38,31.45-3.89,9.66-10.84,16.51-19.77,21.54C154.58,172.84,153.52,173.53,152.66,174.06ZM53.59,195.88v60.77H99.37a47.1,47.1,0,0,0,8.16-.26c5.45-1,11.12-1.63,16.16-3.72,18.77-7.79,19.14-38.67,7.66-48.17a30.8,30.8,0,0,0-18.83-7.41C93,196.4,73.45,196.25,53.59,195.88Zm-.14-37.42c1,.09,1.72.21,2.42.21,15.15,0,30.3.27,45.44-.13a78.42,78.42,0,0,0,18.09-2.86c7.79-2.08,13-7.38,14.18-15.56a45.79,45.79,0,0,0-.05-13.73c-1.33-7.94-6.32-13.06-14.3-14.85-3.91-.87-7.88-1.94-11.85-2-17.61-.42-35.24-.51-52.86-.7a3.65,3.65,0,0,0-1.07.38Z" transform="translate(-0.35 -0.66)"/><path d="M238.83,79.06h90.78v22.26H238.83Z" transform="translate(-0.35 -0.66)"/><path class="cls-1" d="M320.73,191.58H248.45c2.1-19.12,13.29-34.33,36.15-34.29C305.59,157.32,320.71,171.63,320.73,191.58Z" transform="translate(-0.35 -0.66)"/><path class="cls-1" d="M53.59,195.88c19.86.37,39.4.52,58.93,1.2a30.8,30.8,0,0,1,18.83,7.41c11.48,9.5,11.11,40.38-7.66,48.17-5,2.09-10.71,2.74-16.16,3.72a47.1,47.1,0,0,1-8.16.26H53.59Z" transform="translate(-0.35 -0.66)"/><path class="cls-1" d="M53.45,158.46V109.19a3.65,3.65,0,0,1,1.07-.38c17.62.19,35.25.28,52.86.7,4,.09,7.94,1.16,11.85,2,8,1.79,13,6.91,14.3,14.85a45.79,45.79,0,0,1,.05,13.73c-1.16,8.18-6.39,13.48-14.18,15.56a78.42,78.42,0,0,1-18.09,2.86c-15.14.4-30.29.14-45.44.13C55.17,158.67,54.48,158.55,53.45,158.46Z" transform="translate(-0.35 -0.66)"/></g></g></svg>