<svg xmlns="http://www.w3.org/2000/svg" viewBox="0 0 384.64 384.64"><defs><style>.cls-1{fill:#fff;}</style></defs><title>Asset 3</title><g id="Layer_2" data-name="Layer 2"><g id="Layer_1-2" data-name="Layer 1"><path class="cls-1" d="M.4,384.88V.24H385V384.88Zm375-195.63C373.47,88.45,290.6,7.33,188.45,9.29a183.31,183.31,0,0,0,7.26,366.54C296.28,373.91,377,291.13,375.39,189.25Z" transform="translate(-0.4 -0.24)"/><path d="M375.39,189.25C377,291.13,296.28,373.91,195.71,375.83A183.31,183.31,0,0,1,188.45,9.29C290.6,7.33,373.47,88.45,375.39,189.25ZM192.18,345.79c84.28,0,153-68.75,153.14-153.09S276.57,39.35,192.14,39.33,38.83,108.15,38.84,192.59,107.7,345.81,192.18,345.79Z" transform="translate(-0.4 -0.24)"/><path class="cls-1" d="M192.18,345.79c-84.48,0-153.33-68.76-153.34-153.2S107.69,39.3,192.14,39.33s153.27,69,153.18,153.37S276.46,345.77,192.18,345.79ZM305.46,192.87c0-11-.09-22,0-32.94a11.91,11.91,0,0,0-5.76-11q-50.48-33.5-100.81-67.19c-4.65-3.12-8.89-3.21-13.57-.08q-50.47,33.78-101.07,67.38a11.52,11.52,0,0,0-5.6,10.4q.07,33.1,0,66.22a11.52,11.52,0,0,0,5.63,10.38q50.58,33.6,101.06,67.38c4.54,3,8.73,3.13,13.3.07q50.49-33.76,101.08-67.37a11.72,11.72,0,0,0,5.74-10.65C305.39,214.62,305.46,203.75,305.46,192.87Z" transform="translate(-0.4 -0.24)"/><path d="M305.46,192.87c0,10.88-.07,21.75,0,32.63a11.72,11.72,0,0,1-5.74,10.65q-50.6,33.6-101.08,67.37c-4.57,3.06-8.76,3-13.3-.07q-50.48-33.76-101.06-67.38a11.52,11.52,0,0,1-5.63-10.38q.09-33.12,0-66.22a11.52,11.52,0,0,1,5.6-10.4q50.6-33.6,101.07-67.38c4.68-3.13,8.92-3,13.57.08Q249.26,115.46,299.73,149a11.91,11.91,0,0,1,5.76,11C305.37,170.91,305.46,181.89,305.46,192.87ZM182.29,107.19l-76,50.67a5.38,5.38,0,0,0,.76.85c10.54,7.07,21,14.15,31.66,21.1a3.73,3.73,0,0,0,3.26-.29q19.22-12.69,38.25-25.62a5.38,5.38,0,0,0,2-3.8c.16-10.77.09-21.54.09-32.32ZM278.13,158l-75.9-50.59a8.69,8.69,0,0,0-.33,1.42c0,14-.07,27.94.06,41.91a4.69,4.69,0,0,0,2,3.16c12.61,8.56,25.33,17,37.93,25.53,1.74,1.18,2.86,1,4.47-.08,7.3-5,14.68-9.88,22-14.8ZM106,227.09l75.91,50.59a8.69,8.69,0,0,0,.33-1.42c0-14,.07-27.94-.06-41.9a4.73,4.73,0,0,0-2-3.17c-12.61-8.55-25.33-17-37.93-25.52-1.74-1.18-2.85-1-4.47.08-7.47,5.13-15,10.12-22.55,15.16Zm138-22.81c-13.7,9.17-27.27,18.2-40.75,27.38-.87.59-1.36,2.3-1.37,3.5-.1,13.22-.07,26.44-.06,39.67,0,.8.12,1.59.22,2.95l76-50.69Zm-17.52-11.72c-11.25-7.52-22.11-14.84-33.07-22-.77-.5-2.61-.12-3.53.48-8.3,5.4-16.5,10.95-24.73,16.46-2.43,1.62-4.85,3.27-7.53,5.08,11.21,7.5,22.08,14.8,33,22a3.08,3.08,0,0,0,2.76,0C204.37,207.41,215.24,200.11,226.53,192.56Zm-103.94,0L98.44,176.42V208.7Zm163.19-16.19-24.19,16.2,24.19,16.17Z" transform="translate(-0.4 -0.24)"/><path class="cls-1" d="M182.29,107.19v10.59c0,10.78.07,21.55-.09,32.32a5.38,5.38,0,0,1-2,3.8q-19,13-38.25,25.62a3.73,3.73,0,0,1-3.26.29c-10.61-6.95-21.12-14-31.66-21.1a5.38,5.38,0,0,1-.76-.85Z" transform="translate(-0.4 -0.24)"/><path class="cls-1" d="M278.13,158l-9.75,6.55c-7.35,4.92-14.73,9.79-22,14.8-1.61,1.1-2.73,1.26-4.47.08-12.6-8.56-25.32-17-37.93-25.53a4.69,4.69,0,0,1-2-3.16c-.13-14-.08-27.94-.06-41.91a8.69,8.69,0,0,1,.33-1.42Z" transform="translate(-0.4 -0.24)"/><path class="cls-1" d="M106,227.09l9.24-6.18c7.52-5,15.08-10,22.55-15.16,1.62-1.1,2.73-1.26,4.47-.08,12.6,8.56,25.32,17,37.93,25.52a4.73,4.73,0,0,1,2,3.17c.13,14,.08,27.93.06,41.9a8.69,8.69,0,0,1-.33,1.42Z" transform="translate(-0.4 -0.24)"/><path class="cls-1" d="M244.05,204.28l34.08,22.81-76,50.69c-.1-1.36-.21-2.15-.22-2.95,0-13.23,0-26.45.06-39.67,0-1.2.5-2.91,1.37-3.5C216.78,222.48,230.35,213.45,244.05,204.28Z" transform="translate(-0.4 -0.24)"/><path class="cls-1" d="M226.53,192.56c-11.29,7.55-22.16,14.85-33.09,22.05a3.08,3.08,0,0,1-2.76,0c-10.93-7.19-21.8-14.49-33-22,2.68-1.81,5.1-3.46,7.53-5.08,8.23-5.51,16.43-11.06,24.73-16.46.92-.6,2.76-1,3.53-.48C204.42,177.72,215.28,185,226.53,192.56Z" transform="translate(-0.4 -0.24)"/><path class="cls-1" d="M122.59,192.56,98.44,208.7V176.42Z" transform="translate(-0.4 -0.24)"/><path class="cls-1" d="M285.78,176.37v32.37l-24.19-16.17Z" transform="translate(-0.4 -0.24)"/></g></g></svg>