<svg xmlns="http://www.w3.org/2000/svg" viewBox="0 0 364.71 364.71"><defs><style>.cls-1{fill:#fff;}</style></defs><title>Asset 2</title><g id="Layer_2" data-name="Layer 2"><g id="Layer_1-2" data-name="Layer 1"><path d="M171.76.45h21.33c6.09.76,12.21,1.31,18.26,2.32,38,6.36,71.13,22.71,98.4,49.95,40.89,40.86,58.88,90.52,53.65,148-3.51,38.6-18.61,72.72-44.43,101.71-34.28,38.5-77.42,59.24-128.9,61.74-35.9,1.75-69.66-6.62-100.38-25.36C42.45,310,13.46,268.29,3.26,213.77,2,206.94,1.35,200,.42,193.11V171.78c.29-2.56.59-5.11.87-7.67C5.65,124.94,20.61,90.4,47,61.1,75,30,109.76,10.59,151.07,3.28,157.92,2.06,164.86,1.38,171.76.45Zm73.6,320.92c-3.18-25.5-23.57-98.08-30.82-109.81-39.29,9.2-108,57.88-127.16,90.1C131.42,337.73,194.79,345.23,245.36,321.37ZM66,281.08a317.9,317.9,0,0,1,62-58.22,278.61,278.61,0,0,1,76-38.63l-15.68-33.37c-51.63,17.39-104.45,24.75-158.53,25.38C28.89,215.77,40.65,250.41,66,281.08ZM174.25,124.59a706.61,706.61,0,0,0-53-81.74c-37.38,11.9-85.06,69-86.87,104.07C81.88,145.92,128.42,139.25,174.25,124.59ZM335,177.79c-1.45-34.65-12.75-64.8-34.07-91.48-25.31,23.11-53.95,40.36-85,53.89,5.73,12.42,11.26,24.42,16.88,36.59C266.85,170.23,300.72,170.88,335,177.79ZM280.25,65.48C241.32,32,188.18,23.93,152,33.13l51.13,80.62C225.68,105.76,262.9,82.57,280.25,65.48Zm-7.87,240.31c33.15-25.33,53.45-57.67,60.81-98.46-29.69-6.66-59.18-8.08-89.47-3A616.29,616.29,0,0,1,272.38,305.79Z" transform="translate(-0.42 -0.45)"/><path class="cls-1" d="M.42,193.11C1.35,200,2,206.94,3.26,213.77,13.46,268.29,42.45,310,89.69,338.84c30.72,18.74,64.48,27.11,100.38,25.36,51.48-2.5,94.62-23.24,128.9-61.74,25.82-29,40.92-63.11,44.43-101.71,5.23-57.51-12.76-107.17-53.65-148-27.27-27.24-60.39-43.59-98.4-49.95-6-1-12.17-1.56-18.26-2.32h172V365.16H.42Z" transform="translate(-0.42 -0.45)"/><path class="cls-1" d="M171.76.45c-6.9.93-13.84,1.61-20.69,2.83C109.76,10.59,75,30,47,61.1c-26.39,29.3-41.35,63.84-45.71,103-.28,2.56-.58,5.11-.87,7.67V.45Z" transform="translate(-0.42 -0.45)"/><path class="cls-1" d="M245.36,321.37c-50.57,23.86-113.94,16.36-158-19.71,19.17-32.22,87.87-80.9,127.16-90.1C221.79,223.29,242.18,295.87,245.36,321.37Z" transform="translate(-0.42 -0.45)"/><path class="cls-1" d="M66,281.08c-25.31-30.67-37.07-65.31-36.23-104.84,54.08-.63,106.9-8,158.53-25.38l15.68,33.37a278.61,278.61,0,0,0-76,38.63A317.9,317.9,0,0,0,66,281.08Z" transform="translate(-0.42 -0.45)"/><path class="cls-1" d="M174.25,124.59c-45.83,14.66-92.37,21.33-139.86,22.33,1.81-35,49.49-92.17,86.87-104.07A706.61,706.61,0,0,1,174.25,124.59Z" transform="translate(-0.42 -0.45)"/><path class="cls-1" d="M335,177.79c-34.29-6.91-68.16-7.56-102.15-1-5.62-12.17-11.15-24.17-16.88-36.59,31-13.53,59.65-30.78,85-53.89C322.26,113,333.56,143.14,335,177.79Z" transform="translate(-0.42 -0.45)"/><path class="cls-1" d="M280.25,65.48c-17.35,17.09-54.57,40.28-77.16,48.27L152,33.13C188.18,23.93,241.32,32,280.25,65.48Z" transform="translate(-0.42 -0.45)"/><path class="cls-1" d="M272.38,305.79a616.29,616.29,0,0,0-28.66-101.47c30.29-5.07,59.78-3.65,89.47,3C325.83,248.12,305.53,280.46,272.38,305.79Z" transform="translate(-0.42 -0.45)"/></g></g></svg>