<svg xmlns="http://www.w3.org/2000/svg" viewBox="0 0 363.6 363.6"><defs><style>.cls-1{fill:#fff;}</style></defs><title>Asset 4</title><g id="Layer_2" data-name="Layer 2"><g id="Layer_1-2" data-name="Layer 1"><path d="M240.94,363.64H123.57a11.65,11.65,0,0,0-2-.48c-8.34-.46-16.71-.67-25-1.37-15.71-1.33-30.84-5.13-44.64-12.89C22.4,332.28,7.17,306.06,3.37,273.15,1.47,256.68,1,240,.88,223.4c-.3-32.65-.07-65.31.25-98,.14-14,.48-28,3.28-41.81,8.39-41.45,32.72-67.9,74-78.2C95.79,1.11,113.6,1,131.29.86c37.49-.25,75,.07,112.47.33,13.49.1,27,.75,40.23,3.73,34.22,7.7,58.5,27.21,71.1,60.35,5.43,14.28,7.18,29.27,7.78,44.43.19,4.59.59,9.17.89,13.76V240.83a20.39,20.39,0,0,0-.49,2.88c-.41,13.38-.83,26.78-3.75,39.92-7.61,34.22-27,58.55-60.13,71.23-14.37,5.51-29.43,7.28-44.69,7.9C250.11,362.94,245.53,363.34,240.94,363.64Zm-58.85-32.32v-.85c18.64,0,37.29.3,55.93-.11a316.45,316.45,0,0,0,35.21-2.56c13.94-1.87,26.43-7.43,36.67-17.57,12.85-12.72,18-28.71,19.25-46.06,1.15-15.76,1.57-31.59,1.76-47.4q.42-35.22,0-70.46c-.19-15.4-.74-30.82-1.74-46.19-.87-13.41-4.29-26.26-12.09-37.51C305.56,46,288.92,37.79,269.37,35.9c-16.51-1.6-33.16-2.19-49.76-2.38-28.72-.31-57.46-.17-86.18.19-12.77.16-25.57.93-38.28,2.13A67,67,0,0,0,62.73,47.3C46.12,58.85,37.91,75.47,36,95c-1.59,16.31-2.23,32.75-2.37,49.15-.25,31.24,0,62.49.35,93.73.13,12.88.4,25.8,3.09,38.49,5,23.58,18.17,40.23,41.3,48.29a96.33,96.33,0,0,0,29.37,5C132.53,330.38,157.31,330.8,182.09,331.32Z" transform="translate(-0.15 -0.04)"/><path class="cls-1" d="M363.76,123.46c-.3-4.59-.7-9.17-.89-13.76-.6-15.16-2.35-30.15-7.78-44.43C342.49,32.13,318.21,12.62,284,4.92c-13.24-3-26.74-3.63-40.23-3.73-37.49-.26-75-.58-112.47-.33-17.69.12-35.5.25-52.86,4.57-41.3,10.3-65.63,36.75-74,78.2-2.8,13.79-3.14,27.82-3.28,41.81-.32,32.65-.55,65.31-.25,98,.14,16.6.59,33.28,2.49,49.75,3.8,32.91,19,59.13,48.55,75.75,13.8,7.76,28.93,11.56,44.64,12.89,8.32.7,16.69.91,25,1.37a11.65,11.65,0,0,1,2,.48H.15V0H363.76Z" transform="translate(-0.15 -0.04)"/><path class="cls-1" d="M240.94,363.64c4.59-.3,9.17-.7,13.76-.88,15.26-.62,30.32-2.39,44.69-7.9,33.11-12.68,52.52-37,60.13-71.23,2.92-13.14,3.34-26.54,3.75-39.92a20.39,20.39,0,0,1,.49-2.88V363.64Z" transform="translate(-0.15 -0.04)"/><path class="cls-1" d="M182.09,331.32c-24.78-.52-49.56-.94-74.34-1.61a96.33,96.33,0,0,1-29.37-5C55.25,316.63,42.09,300,37.08,276.4c-2.69-12.69-3-25.61-3.09-38.49-.3-31.24-.6-62.49-.35-93.73.14-16.4.78-32.84,2.37-49.15,1.9-19.56,10.11-36.18,26.72-47.73A67,67,0,0,1,95.15,35.84c12.71-1.2,25.51-2,38.28-2.13,28.72-.36,57.46-.5,86.18-.19,16.6.19,33.25.78,49.76,2.38,19.55,1.89,36.19,10.08,47.72,26.71,7.8,11.25,11.22,24.1,12.09,37.51,1,15.37,1.55,30.79,1.74,46.19q.4,35.22,0,70.46c-.19,15.81-.61,31.64-1.76,47.4-1.26,17.35-6.4,33.34-19.25,46.06-10.24,10.14-22.73,15.7-36.67,17.57A316.45,316.45,0,0,1,238,330.36c-18.64.41-37.29.11-55.93.11Zm93.44-149a93.27,93.27,0,1,0-93.35,93.12A93.17,93.17,0,0,0,275.53,182.3Zm25.41-97a21.83,21.83,0,1,0-43.66,0,21.83,21.83,0,0,0,43.66,0Z" transform="translate(-0.15 -0.04)"/><path d="M275.53,182.3a93.27,93.27,0,1,1-93-93.43A93.16,93.16,0,0,1,275.53,182.3Zm-93.25-60.61c-33.15-.08-60.32,27.05-60.47,60.36-.15,32.49,26.94,60.08,58.76,60.57,33.85.53,61.6-26,62-59C243,149,216.2,121.77,182.28,121.69Z" transform="translate(-0.15 -0.04)"/><path d="M300.94,85.34a21.83,21.83,0,1,1-21.8-21.88A21.67,21.67,0,0,1,300.94,85.34Z" transform="translate(-0.15 -0.04)"/><path class="cls-1" d="M182.28,121.69c33.92.08,60.73,27.29,60.3,61.91-.41,33-28.16,59.55-62,59-31.82-.49-58.91-28.08-58.76-60.57C122,148.74,149.13,121.61,182.28,121.69Z" transform="translate(-0.15 -0.04)"/></g></g></svg>