<svg id="Layer_1" data-name="Layer 1" xmlns="http://www.w3.org/2000/svg" xmlns:xlink="http://www.w3.org/1999/xlink" viewBox="0 0 806.29 802.13"><defs><style>.cls-1{fill:url(#linear-gradient);}</style><linearGradient id="linear-gradient" x1="938.43" y1="168.87" x2="938.43" y2="964.78" gradientTransform="matrix(1, 0, 0, -1, 0, 1080)" gradientUnits="userSpaceOnUse"><stop offset="0" stop-color="#921e4a"/><stop offset="0.23" stop-color="#782a5f"/><stop offset="0.75" stop-color="#434389"/><stop offset="1" stop-color="#2e4d9a"/></linearGradient></defs><title>J-logo</title><path class="cls-1" d="M1096,115.22h.8l89.94,19.1h.8v1.6L1186,262.47l-.8,74.81,1.59,97.1.8,163.16-14.33,134.51v.8l-98.69,128.94L934.46,911.13h-.8L791.2,894.41v-.79h-.8L690.11,827.56h-.8V826l39.8-86v-.8l82-38.21h.8v.8l90.74,66.87,62.08-47.76,51.73-148-20.69-40.59v-.8l12.73-87.55-8-88.34v-.8l-4.77-123.37,2.39-93.92v-1.6h.8ZM692.5,825.17l70.84.8-33.43-82.78Zm3.19,3.19,93.12,61.29-19.9-50.15Zm68.44,0-55.71-.8,58.89,9.55Zm46.16-124.17-78,36.62,82,81.18Zm-76.4,41.39L765.73,826h46.95Zm36.61,91.53,38.2,6.37,4.78-15.12h-47Zm.79,3.18,19.9,49.35,15.91-43.78Zm39,5.58-15.92,41.39,35-38.2ZM794.37,892l134.52,15.92-89.15-57.31Zm14.33-16.7,28.65-25.48-4.77-.79Zm23.08-28.66,1.59-1.59L815.86,830l-4.78,13.53Zm68.45-76.41L813.47,705l20.69,109Zm-68.45,44.58-18.31-96.31,3.19,105.86.8.79Zm.8,3.18-13.53,8.75,4.77,4.78,12.73,9.55Zm1.58,23.88.8.79Zm0,5.57h1.59l-.79-.8Zm61.29-70.84L835,816.42l4,22.28Zm-58.1,67.66h-.8l1.59.79Zm4.78,0,35.81-44.57-38.2,42.19v.79Zm-.8,4.77,34.22,21.49-32.63-23.07Zm3.19-3.18,87.55,60.48L901.83,773.43Zm89.93,61.28L1026,795.72,904.21,771.85ZM905.8,769.45l119.38,23.09L965.49,723.3Zm31.84,137.7,134.51-46.95-43.78-63.68Zm30.24-187.84,130.53-69.24L1018,574.46Zm129.73-66L968.68,721.71l78,34.22ZM970.26,724.89l58.1,67.65,16.72-34.23Zm27.86-497.45,44.57-51.73-42.18-35.81Zm0,4.78,4.78,119.38,99.49-123.37Zm11.15,223.65-11.15,74,15.92-4ZM1014,528.3l-15.12,4,15.92,18.3Zm31-351-45.37,52.53,101.88-4Zm47.75-58.9-90.73,19.1,42.18,36.61Zm-90.73,421,14.33,27.06-.8-11.94Zm.8-182.26,8,84.36,79.6-63.67Zm100.29-126.55-97.9,122.57,89.93-22.28Zm-96.31,124.16L1092,375.48l3.18-42.18Zm4.77,91.53,4.78,78.79,88.35-21.49ZM1106.36,502,1092,379.46l-79.6,64.47ZM1018,553.76l8.75,10.35,75.62-57.3-86,21.49Zm0,4,.79,11.94,6.36-4Zm8.76,9.55-5.57,4,10.34,1.59Zm-5.57,7.16,62.08,57.31L1034,576.06Zm82,9.55,4-77.2-78.79,58.89,7.17,8Zm-72.43,211.71,43,62.09L1096,782.19Zm46.16-23.88-29.45-12.73-15.92,32.64Zm-39-195,61.28,70,3.19-60.48ZM1040.3,791l54.12-11.14-14.33-6.37Zm54.92-671.75-48.54,56.51,56.51,48.55Zm2.39,643.89,1.59-107.45-50.14,101.87,31,13.53Zm-20.69,91.53,89.93-117.79L1099.2,781.4Zm19.9-76.41V766.27l-14.33,6.36Zm.79-445.71-3.19,40.6,39-49.35ZM1109.55,502l74-67.65-89.15-54.92Zm74-70.83-19.11-83.57L1096,377.08ZM1138.2,187.65l-39.79-66.06,7.17,101.87Zm-32.62,43-7.17,99.49,38.2-9.56,12.73-16.71Zm58.09,114.61L1158.11,319l-58.9,54.13Zm-64.47,433,59.7-39L1100,764.68Zm65.27-620.8L1100,120l39.8,65.26ZM1170,731.25l-68.45-77.2L1100,762.29Zm-67.65-82.77,80.39-50.14-77.2-11.94Zm82-48.55-82,50.94,68.45,78Zm-.8-464L1104,119.2l62.87,36.61ZM1104,365.14,1154.12,319l-16.72,4ZM1182.78,596l-73.23-88.34-4,76.4Zm-37.41-397.16-38.21,27.86,61.29,27.06,2.39-11.94Zm23.08,57.31-59.7-26.26,47,66.06,7.16-7.95Zm16.71,338.26-.8-157.58-74,67.65ZM1143.78,197.2l-4-7.16-26.26,28.65Zm10.34,101.08-31.84-45.37,28.65,49.35Zm-3.18,8-10.34,13.53,15.92-4ZM1166.85,159l-25.46,28.65,4.78,8,36.61-27.06Zm16.72,11.93L1147,198l24.67,39.8ZM1159.7,305.44l-4-4.77-3.19,4,5.58,8.75Zm0-3.18,1.58-9.56-4,5.57Zm.79,14.33,16.71,13.53-14.33-19.9Zm5.57,27.06,15.12-6.37-20.69-17.51Zm-4-38.21,16.72-34.22-14.33,17.51-2.39,15.92Zm20.7,28.65V268l-18.31,39.79Zm-11.94-76.4L1166.06,284l16.72-21.49Zm12.73,164-.8-82L1166.85,346Zm1.59-282.54-16.72,17.5,15.92,9.56ZM1172.43,245l-1.59,9.55,10.34,4.78Zm11.14,12.73.79-74.82L1173.22,241Z" transform="translate(-586.95 -109)"/><path d="M759.33,118.15c-37.59,0-58.77,23.09-65.9,76L660.84,427c-6.55,48-28.79,65.66-60.79,69.22,31.28,3.94,47.46,23.09,40.56,72.1L608.37,799.43c-7.13,52.46,7.37,74.46,43.89,74.82l-.72,9.16c-39.84,0-61.62-24.62-53.76-82.91l33-237.21c5.82-43.17-10.11-61.62-43.78-61.62l1.44-10.93c32.47,0,56-18.68,62.21-62.34l32.95-237.19C691.41,132.92,718.77,109,760,109Z" transform="translate(-586.95 -109)"/><path d="M1220.86,885.65c37.59,0,58.77-23.07,65.9-76l32.59-232.79c6.55-48.07,28.79-65.67,60.79-69.24-31.28-3.93-47.46-23.08-40.55-72.1l32.23-231.13c7.13-52.46-7.37-74.47-43.88-74.83l.71-9.16c39.84,0,61.62,24.62,53.76,82.91l-33,237.21c-5.82,43.18,10.11,61.62,43.78,61.62l-1.44,10.93c-32.47,0-56,18.68-62.21,62.34l-32.95,237.21c-7.86,58.29-35.22,82.19-76.49,82.19Z" transform="translate(-586.95 -109)"/></svg>