<?xml version="1.0" encoding="utf-8"?>
<!-- Generator: Adobe Illustrator 23.0.3, SVG Export Plug-In . SVG Version: 6.00 Build 0)  -->
<svg version="1.1" id="Layer_1" xmlns="http://www.w3.org/2000/svg" xmlns:xlink="http://www.w3.org/1999/xlink" x="0px" y="0px"
	 viewBox="0 0 1920 1080" enable-background="new 0 0 1920 1080" xml:space="preserve">
<g>
	
		<image overflow="visible" opacity="0.6" width="1138" height="1138" xlink:href="7C2A8EE88FEC4403.png"  transform="matrix(1 0 0 1 408 -19)">
	</image>
	<g>
		<linearGradient id="SVGID_1_" gradientUnits="userSpaceOnUse" x1="592.3083" y1="111.4476" x2="1247.3398" y2="874.9006">
			<stop  offset="0.1881" style="stop-color:#FFFFFF"/>
			<stop  offset="0.4077" style="stop-color:#FBFBFB"/>
			<stop  offset="0.6457" style="stop-color:#EEEEEE"/>
			<stop  offset="0.8915" style="stop-color:#D8D8D8"/>
			<stop  offset="1" style="stop-color:#CCCCCC"/>
		</linearGradient>
		<circle fill="url(#SVGID_1_)" cx="960" cy="540" r="502.96"/>
	</g>
</g>
<g>
	<linearGradient id="SVGID_2_" gradientUnits="userSpaceOnUse" x1="912.1946" y1="911.1299" x2="912.1946" y2="174.6391">
		<stop  offset="0" style="stop-color:#921E4A"/>
		<stop  offset="0.2293" style="stop-color:#782A5F"/>
		<stop  offset="0.7475" style="stop-color:#434389"/>
		<stop  offset="1" style="stop-color:#2E4D9A"/>
	</linearGradient>
	<path fill="url(#SVGID_2_)" d="M1058.02,174.64C1058.02,174.64,1058.02,174.64,1058.02,174.64c0.74,0,0.74,0,0.74,0s0,0,0,0
		l83.22,17.67c0.74,0,0.74,0,0.74,0c0,0.74,0,0.74,0,0.74s0,0,0,0.74l-1.47,117.1l-0.74,69.23l1.47,89.85l0.74,150.98l-13.26,124.47
		v0.74l-91.32,119.31l-129.62,45.66c-0.74,0-0.74,0-0.74,0l-131.83-15.47c0,0,0,0,0-0.73c0,0,0,0-0.74,0l-92.8-61.13h-0.74
		c0,0,0,0,0-0.73c0,0,0,0,0-0.73l36.83-79.55v-0.74l75.86-35.35v0c0.74,0,0.74,0,0.74,0s0,0,0,0.74l83.96,61.87l57.45-44.19
		l47.87-136.99l-19.15-37.56v-0.74l11.78-81.01l-7.36-81.75c0,0,0,0,0-0.74l-4.42-114.16l2.21-86.91v-0.74c0-0.74,0-0.74,0-0.74
		s0,0,0.74,0c0,0,0,0,0,0L1058.02,174.64z M684.62,831.59l65.55,0.74l-30.93-76.6L684.62,831.59z M687.57,834.54l86.17,56.71
		l-18.41-46.4L687.57,834.54z M750.9,834.54l-51.55-0.74l54.5,8.84L750.9,834.54z M793.62,719.64l-72.17,33.88l75.86,75.12
		L793.62,719.64z M722.92,757.94l29.46,74.39h43.45L722.92,757.94z M756.8,842.64l35.35,5.89l4.42-13.99h-43.45L756.8,842.64z
		 M757.53,845.58l18.41,45.66l14.73-40.51L757.53,845.58z M793.62,850.74l-14.73,38.3l32.41-35.35L793.62,850.74z M778.89,893.45
		l124.47,14.73l-82.49-53.03L778.89,893.45z M792.15,877.99l26.51-23.57l-4.42-0.74L792.15,877.99z M813.5,851.47l1.47-1.47
		l-16.2-13.99l-4.42,12.52L813.5,851.47z M876.84,780.77l-80.28-60.39l19.15,100.9L876.84,780.77z M813.5,822.02l-16.94-89.12
		l2.95,97.96l0.74,0.73L813.5,822.02z M814.24,824.96l-12.52,8.1l4.42,4.42l11.78,8.84L814.24,824.96z M815.71,847.06l0.74,0.73
		L815.71,847.06z M815.71,852.21h1.47l-0.73-0.74L815.71,852.21z M872.42,786.66l-55.97,36.83l3.68,20.62L872.42,786.66z
		 M818.66,849.27h-0.74l1.47,0.73L818.66,849.27z M823.08,849.27l33.14-41.24l-35.35,39.04v0.73L823.08,849.27z M822.34,853.68
		l31.67,19.89l-30.2-21.35L822.34,853.68z M825.29,850.74l81.02,55.97l-27.99-123L825.29,850.74z M908.51,907.45l84.7-103.11
		l-112.68-22.09L908.51,907.45z M882,780.03l110.47,21.36l-55.24-64.07L882,780.03z M911.46,907.45l124.47-43.45l-40.51-58.92
		L911.46,907.45z M939.44,733.63l120.79-64.07l-74.39-69.97L939.44,733.63z M1059.49,672.51l-119.31,63.34l72.18,31.67
		L1059.49,672.51z M941.65,738.79l53.76,62.6l15.47-31.67L941.65,738.79z M967.43,278.48l41.24-47.87l-39.03-33.14L967.43,278.48z
		 M967.43,282.9l4.42,110.47l92.06-114.16L967.43,282.9z M977.74,489.86l-10.31,68.49l14.73-3.68L977.74,489.86z M982.16,556.88
		l-13.99,3.68l14.73,16.94L982.16,556.88z M1010.88,232.09l-41.98,48.61l94.27-3.68L1010.88,232.09z M1055.07,177.59l-83.96,17.67
		l39.03,33.88L1055.07,177.59z M971.11,567.19l13.26,25.04l-0.74-11.05L971.11,567.19z M971.85,398.53l7.36,78.07l73.65-58.92
		L971.85,398.53z M1064.65,281.43l-90.59,113.42l83.22-20.62L1064.65,281.43z M975.53,396.32l78.8,19.15l2.95-39.03L975.53,396.32z
		 M979.95,481.02l4.42,72.91l81.75-19.89L979.95,481.02z M1067.59,532.57l-13.26-113.42l-73.65,59.66L1067.59,532.57z
		 M985.84,580.44l8.1,9.58l69.97-53.03l-79.54,19.89L985.84,580.44z M985.84,584.13l0.73,11.05l5.89-3.68L985.84,584.13z
		 M993.95,592.97l-5.16,3.68l9.57,1.47L993.95,592.97z M988.79,599.59l57.45,53.03l-45.66-51.55L988.79,599.59z M1064.65,608.43
		l3.68-71.44l-72.91,54.5l6.63,7.37L1064.65,608.43z M997.63,804.34l39.77,57.45l20.62-69.97L997.63,804.34z M1040.34,782.24
		l-27.25-11.78l-14.73,30.2L1040.34,782.24z M1004.26,601.8l56.71,64.81l2.95-55.97L1004.26,601.8z M1006.46,799.92l50.08-10.31
		l-13.26-5.89L1006.46,799.92z M1057.28,178.32l-44.92,52.29l52.29,44.93L1057.28,178.32z M1059.49,774.14l1.47-99.43l-46.4,94.27
		l28.72,12.52L1059.49,774.14z M1040.34,858.84l83.22-109l-62.6,41.24L1040.34,858.84z M1058.76,788.13v-11.05l-13.26,5.89
		L1058.76,788.13z M1059.49,375.7l-2.95,37.56l36.09-45.66L1059.49,375.7z M1070.54,532.57l68.49-62.6l-82.49-50.82L1070.54,532.57z
		 M1139.03,467.03l-17.68-77.33l-63.34,27.25L1139.03,467.03z M1097.05,241.66l-36.82-61.13l6.63,94.27L1097.05,241.66z
		 M1066.86,281.43l-6.63,92.06l35.35-8.84l11.78-15.47L1066.86,281.43z M1120.62,387.48l-5.15-24.3l-54.5,50.08L1120.62,387.48z
		 M1060.96,788.13l55.24-36.09l-54.5,23.57L1060.96,788.13z M1121.36,213.68l-59.66-34.62l36.83,60.39L1121.36,213.68z
		 M1126.51,744.68l-63.34-71.44l-1.47,100.16L1126.51,744.68z M1063.91,668.09l74.39-46.4l-71.44-11.05L1063.91,668.09z
		 M1139.77,623.16l-75.86,47.14l63.34,72.18L1139.77,623.16z M1139.03,193.79l-73.65-15.47l58.18,33.88L1139.03,193.79z
		 M1065.38,405.9l46.4-42.72l-15.47,3.68L1065.38,405.9z M1138.3,619.48l-67.76-81.75l-3.68,70.7L1138.3,619.48z M1103.68,251.97
		l-35.35,25.78l56.71,25.04l2.21-11.05L1103.68,251.97z M1125.04,305l-55.24-24.3l43.45,61.13l6.63-7.36L1125.04,305z
		 M1140.5,618.01l-0.74-145.82l-68.49,62.6L1140.5,618.01z M1102.21,250.5l-3.68-6.63l-24.3,26.51L1102.21,250.5z M1111.78,344.03
		l-29.46-41.98l26.51,45.66L1111.78,344.03z M1108.84,351.4l-9.57,12.52l14.73-3.68L1108.84,351.4z M1123.56,215.15L1100,241.66
		l4.42,7.37l33.88-25.04L1123.56,215.15z M1139.03,226.19l-33.88,25.04l22.83,36.83L1139.03,226.19z M1116.94,350.66l-3.68-4.42
		l-2.95,3.68l5.16,8.1L1116.94,350.66z M1116.94,347.71l1.47-8.84l-3.68,5.15L1116.94,347.71z M1117.67,360.97l15.47,12.52
		l-13.26-18.41L1117.67,360.97z M1122.83,386.01l13.99-5.89l-19.15-16.2L1122.83,386.01z M1119.15,350.66l15.47-31.67l-13.26,16.2
		l-2.21,14.73V350.66z M1138.3,377.17v-61.13l-16.94,36.82L1138.3,377.17z M1127.25,306.47l-4.42,24.3l15.47-19.89L1127.25,306.47z
		 M1139.03,458.19l-0.74-75.86l-14.73,5.89L1139.03,458.19z M1140.5,196.74l-15.47,16.2l14.73,8.84L1140.5,196.74z M1128.72,294.69
		l-1.47,8.84l9.57,4.42L1128.72,294.69z M1139.03,306.47l0.73-69.23l-10.31,53.76L1139.03,306.47z"/>
	<g>
		<path d="M746.46,177.35c-34.78,0-54.38,21.36-60.98,70.34l-30.16,215.42c-6.06,44.47-26.64,60.76-56.25,64.06
			c28.95,3.64,43.92,21.36,37.53,66.71l-29.83,213.89c-6.6,48.54,6.82,68.9,40.61,69.23l-0.66,8.48
			c-36.87,0-57.02-22.78-49.75-76.72l30.49-219.5c5.39-39.95-9.35-57.02-40.51-57.02l1.33-10.12c30.05,0,51.84-17.28,57.57-57.68
			l30.49-219.49c7.27-53.94,32.59-76.07,70.78-76.07L746.46,177.35z"/>
	</g>
	<g>
		<path d="M1173.54,887.55c34.78,0,54.38-21.35,60.98-70.33l30.16-215.42c6.06-44.48,26.64-60.76,56.25-64.07
			c-28.95-3.63-43.92-21.35-37.53-66.71l29.83-213.88c6.6-48.54-6.82-68.91-40.61-69.24l0.66-8.48c36.87,0,57.02,22.78,49.75,76.72
			l-30.49,219.5c-5.39,39.96,9.35,57.02,40.51,57.02l-1.33,10.12c-30.05,0-51.84,17.28-57.57,57.68l-30.49,219.5
			c-7.27,53.94-32.59,76.06-70.78,76.06L1173.54,887.55z"/>
	</g>
</g>
</svg>
